  <svg
                        id="Group_1246"
                        data-name="Group 1246"
                        xmlns="http://www.w3.org/2000/svg"
                        width="46.505"
                        height="41.5"
                        viewBox="0 0 46.505 41.5"
                      >
                        <g
                          id="Group_1242"
                          data-name="Group 1242"
                          transform="translate(0 25.049)"
                        >
                          <path
                            id="Path_6226"
                            data-name="Path 6226"
                            d="M-255.846,296.977a8.226,8.226,0,0,0-3.3-5.686,7.676,7.676,0,0,0-1.61-.929,8.069,8.069,0,0,0-3.283-.681,8.237,8.237,0,0,0-8.226,8.226,8.237,8.237,0,0,0,8.226,8.226,8.246,8.246,0,0,0,8.188-7.3,7.783,7.783,0,0,0,.05-.929A7.781,7.781,0,0,0-255.846,296.977Zm-8.188,7.3a6.373,6.373,0,0,1-6.367-6.367,6.373,6.373,0,0,1,6.367-6.368,6.35,6.35,0,0,1,2.341.446,6.5,6.5,0,0,1,1.611.929,6.28,6.28,0,0,1,2.354,4.063,5.871,5.871,0,0,1,.074.929,5.872,5.872,0,0,1-.074.929A6.369,6.369,0,0,1-264.034,304.273Z"
                            transform="translate(272.26 -289.68)"
                            fill="#6d1e9e"
                          />
                        </g>
                        <g
                          id="Group_1243"
                          data-name="Group 1243"
                          transform="translate(15.175)"
                        >
                          <path
                            id="Path_6227"
                            data-name="Path 6227"
                            d="M-251.784,269.46a8.237,8.237,0,0,0-8.226,8.226,8.168,8.168,0,0,0,2.849,6.219,7.672,7.672,0,0,0,1.536,1.053,8.028,8.028,0,0,0,3.84.966,8.028,8.028,0,0,0,3.84-.966,7.674,7.674,0,0,0,1.536-1.053,8.168,8.168,0,0,0,2.849-6.219A8.237,8.237,0,0,0-251.784,269.46Zm4.423,12.8a5.994,5.994,0,0,1-1.511,1.1,6.356,6.356,0,0,1-2.911.706,6.356,6.356,0,0,1-2.911-.706,6,6,0,0,1-1.511-1.1,6.311,6.311,0,0,1-1.945-4.571,6.373,6.373,0,0,1,6.368-6.367,6.373,6.373,0,0,1,6.367,6.367A6.311,6.311,0,0,1-247.362,282.257Z"
                            transform="translate(260.01 -269.46)"
                            fill="#6d1e9e"
                          />
                        </g>
                        <g
                          id="Group_1244"
                          data-name="Group 1244"
                          transform="translate(30.041 25.049)"
                        >
                          <path
                            id="Path_6228"
                            data-name="Path 6228"
                            d="M-239.772,289.68a8.22,8.22,0,0,0-3.035.582,8.379,8.379,0,0,0-1.648.88,8.26,8.26,0,0,0-3.506,5.835,7.781,7.781,0,0,0-.05.929,7.783,7.783,0,0,0,.05.929,8.256,8.256,0,0,0,8.189,7.3,8.237,8.237,0,0,0,8.226-8.226A8.237,8.237,0,0,0-239.772,289.68Zm0,14.593a6.369,6.369,0,0,1-6.306-5.438,5.874,5.874,0,0,1-.074-.929,5.873,5.873,0,0,1,.074-.929,6.249,6.249,0,0,1,2.564-4.212,5.826,5.826,0,0,1,1.648-.867,6.194,6.194,0,0,1,2.094-.359,6.373,6.373,0,0,1,6.367,6.368A6.373,6.373,0,0,1-239.772,304.273Z"
                            transform="translate(248.01 -289.68)"
                            fill="#6d1e9e"
                          />
                        </g>
                        <g
                          id="Group_1245"
                          data-name="Group 1245"
                          transform="translate(10.567 12.797)"
                        >
                          <path
                            id="Path_6229"
                            data-name="Path 6229"
                            d="M-242.323,299.338h-17.442a5.871,5.871,0,0,1,.074.929,5.871,5.871,0,0,1-.074.929h17.442a5.871,5.871,0,0,1-.074-.929A5.871,5.871,0,0,1-242.323,299.338Zm3.27-6.714-6.467-11.186-.954-1.648a5.994,5.994,0,0,1-1.511,1.1l.929,1.6L-240.7,293.5l.941,1.623a5.826,5.826,0,0,1,1.648-.867Zm-17.219-11.186-6.516,11.285-.941,1.623a6.5,6.5,0,0,1,1.611.929l.941-1.623,6.442-11.162.929-1.6a5.994,5.994,0,0,1-1.511-1.1Z"
                            transform="translate(263.73 -279.79)"
                            fill="#6d1e9e"
                          />
                        </g>
                      </svg>