<svg
                        xmlns="http://www.w3.org/2000/svg"
                        width="46.404"
                        height="43.187"
                        viewBox="0 0 46.404 43.187"
                      >
                        <g
                          id="Group_1359"
                          data-name="Group 1359"
                          transform="translate(-510.103 -192.02)"
                        >
                          <g
                            id="Group_1356"
                            data-name="Group 1356"
                            transform="translate(510.103 196.711)"
                          >
                            <g id="Group_1337" data-name="Group 1337">
                              <g id="Group_1336" data-name="Group 1336">
                                <path
                                  id="Path_6277"
                                  data-name="Path 6277"
                                  d="M550.419,232.19a6.358,6.358,0,0,1-5.29-2.009l-6.193-6.724a1.193,1.193,0,0,0-.99-.376l-7.925.8a1.187,1.187,0,0,0-.894.567l-4.721,7.828a6.327,6.327,0,0,1-11.713-2.63l-2.047-20.227a8.114,8.114,0,0,1,7.247-8.879l27.257-2.759a8.114,8.114,0,0,1,8.879,7.247l2.047,20.227A6.334,6.334,0,0,1,550.419,232.19Zm-20.486-9.164,7.925-.8a2.054,2.054,0,0,1,1.71.649l6.193,6.724a5.464,5.464,0,0,0,9.456-4.253l-2.047-20.227a7.25,7.25,0,0,0-7.934-6.476L517.979,201.4a7.25,7.25,0,0,0-6.476,7.935l2.047,20.227a5.464,5.464,0,0,0,10.116,2.271l4.721-7.828A2.057,2.057,0,0,1,529.933,223.026Z"
                                  transform="translate(-510.154 -197.293)"
                                  fill="#6d1e9e"
                                />
                                <path
                                  id="Path_6278"
                                  data-name="Path 6278"
                                  d="M518.932,235.737a6.785,6.785,0,0,1-6.738-6.093l-2.047-20.228a8.562,8.562,0,0,1,7.649-9.371l27.257-2.759a8.564,8.564,0,0,1,9.372,7.648l2.047,20.227a6.782,6.782,0,0,1-6.059,7.424h0a6.814,6.814,0,0,1-5.666-2.151l-6.193-6.723a.739.739,0,0,0-.615-.234l-7.924.8a.738.738,0,0,0-.555.351l-4.721,7.828a6.769,6.769,0,0,1-5.807,3.277ZM545.924,199a6.936,6.936,0,0,0-.694.035L517.973,201.8a6.8,6.8,0,0,0-6.075,7.442l2.047,20.227a5.015,5.015,0,0,0,9.285,2.085l4.721-7.828a2.505,2.505,0,0,1,1.885-1.194l7.925-.8a2.517,2.517,0,0,1,2.086.791l6.193,6.724a5.017,5.017,0,0,0,8.679-3.9l-2.047-20.227A6.8,6.8,0,0,0,545.924,199Z"
                                  transform="translate(-510.103 -197.242)"
                                  fill="#6d1e9e"
                                />
                              </g>
                            </g>
                            <g
                              id="Group_1342"
                              data-name="Group 1342"
                              transform="translate(6.259 10.154)"
                            >
                              <g
                                id="Group_1339"
                                data-name="Group 1339"
                                transform="translate(3.35)"
                              >
                                <g id="Group_1338" data-name="Group 1338">
                                  <path
                                    id="Path_6279"
                                    data-name="Path 6279"
                                    d="M524.143,218.824l-1.467.149a.432.432,0,0,1-.472-.385l-.9-8.921a.431.431,0,0,1,.385-.473l1.467-.148a.431.431,0,0,1,.473.385l.9,8.921A.431.431,0,0,1,524.143,218.824Zm-1.125-.753.608-.061-.816-8.063-.608.062Z"
                                    transform="translate(-520.85 -208.596)"
                                    fill="#6d1e9e"
                                  />
                                  <path
                                    id="Path_6280"
                                    data-name="Path 6280"
                                    d="M522.58,219.374a.88.88,0,0,1-.873-.791l-.9-8.921a.881.881,0,0,1,.787-.965l1.466-.148a.885.885,0,0,1,.965.787l.9,8.921a.88.88,0,0,1-.787.965h0l-1.467.148A.754.754,0,0,1,522.58,219.374Z"
                                    transform="translate(-520.799 -208.545)"
                                    fill="#6d1e9e"
                                  />
                                </g>
                              </g>
                              <g
                                id="Group_1341"
                                data-name="Group 1341"
                                transform="translate(0 3.35)"
                              >
                                <g id="Group_1340" data-name="Group 1340">
                                  <path
                                    id="Path_6281"
                                    data-name="Path 6281"
                                    d="M527.114,215.1l-8.921.9a.432.432,0,0,1-.472-.385l-.148-1.466a.43.43,0,0,1,.385-.473l8.921-.9a.429.429,0,0,1,.472.385l.149,1.466A.432.432,0,0,1,527.114,215.1Zm-8.578,0,8.062-.816-.061-.608-8.063.816Z"
                                    transform="translate(-517.121 -212.325)"
                                    fill="#6d1e9e"
                                  />
                                  <path
                                    id="Path_6282"
                                    data-name="Path 6282"
                                    d="M518.1,216.4a.882.882,0,0,1-.874-.791l-.148-1.466a.882.882,0,0,1,.787-.965l8.921-.9a.891.891,0,0,1,.646.194.878.878,0,0,1,.319.593l.148,1.467a.88.88,0,0,1-.787.964h0l-8.921.9A.767.767,0,0,1,518.1,216.4Z"
                                    transform="translate(-517.07 -212.274)"
                                    fill="#6d1e9e"
                                  />
                                </g>
                              </g>
                            </g>
                            <g
                              id="Group_1353"
                              data-name="Group 1353"
                              transform="translate(24.453 5.845)"
                            >
                              <g
                                id="Group_1347"
                                data-name="Group 1347"
                                transform="translate(0 4.502)"
                              >
                                <g
                                  id="Group_1344"
                                  data-name="Group 1344"
                                  transform="translate(0 1.014)"
                                >
                                  <g id="Group_1343" data-name="Group 1343">
                                    <path
                                      id="Path_6283"
                                      data-name="Path 6283"
                                      d="M540.055,214.434a2.028,2.028,0,1,1,1.813-2.222A2.029,2.029,0,0,1,540.055,214.434Zm-.322-3.177a1.166,1.166,0,1,0,1.276,1.042A1.167,1.167,0,0,0,539.734,211.258Z"
                                      transform="translate(-537.374 -209.94)"
                                      fill="#6d1e9e"
                                    />
                                    <path
                                      id="Path_6284"
                                      data-name="Path 6284"
                                      d="M539.8,214.843a2.477,2.477,0,1,1,.253-.013C539.965,214.839,539.88,214.843,539.8,214.843Zm0-3.194a.668.668,0,0,0-.073,0h0a.708.708,0,1,0,.073,0Z"
                                      transform="translate(-537.323 -209.889)"
                                      fill="#6d1e9e"
                                    />
                                  </g>
                                </g>
                                <g
                                  id="Group_1346"
                                  data-name="Group 1346"
                                  transform="translate(10.02)"
                                >
                                  <g id="Group_1345" data-name="Group 1345">
                                    <path
                                      id="Path_6285"
                                      data-name="Path 6285"
                                      d="M551.209,213.306a2.028,2.028,0,1,1,1.814-2.223A2.03,2.03,0,0,1,551.209,213.306Zm-.322-3.177a1.166,1.166,0,1,0,1.277,1.042A1.167,1.167,0,0,0,550.888,210.129Z"
                                      transform="translate(-548.528 -208.811)"
                                      fill="#6d1e9e"
                                    />
                                    <path
                                      id="Path_6286"
                                      data-name="Path 6286"
                                      d="M550.95,213.714a2.477,2.477,0,0,1-.245-4.942,2.477,2.477,0,1,1,.5,4.929C551.119,213.71,551.035,213.714,550.95,213.714Zm.005-3.194a.688.688,0,0,0-.074,0h0a.715.715,0,0,0-.38,1.267.714.714,0,0,0,1.007-.1.716.716,0,0,0-.553-1.169Z"
                                      transform="translate(-548.477 -208.76)"
                                      fill="#6d1e9e"
                                    />
                                  </g>
                                </g>
                              </g>
                              <g
                                id="Group_1352"
                                data-name="Group 1352"
                                transform="translate(4.503)"
                              >
                                <g id="Group_1349" data-name="Group 1349">
                                  <g id="Group_1348" data-name="Group 1348">
                                    <path
                                      id="Path_6287"
                                      data-name="Path 6287"
                                      d="M545.067,208.293a2.028,2.028,0,1,1,1.814-2.222A2.031,2.031,0,0,1,545.067,208.293Zm-.322-3.177a1.166,1.166,0,1,0,1.277,1.042A1.167,1.167,0,0,0,544.746,205.116Z"
                                      transform="translate(-542.387 -203.799)"
                                      fill="#6d1e9e"
                                    />
                                    <path
                                      id="Path_6288"
                                      data-name="Path 6288"
                                      d="M544.808,208.7a2.485,2.485,0,1,1,.254-.013A2.427,2.427,0,0,1,544.808,208.7Zm.005-3.194a.659.659,0,0,0-.073,0h0a.716.716,0,0,0-.381,1.268.716.716,0,1,0,.454-1.271Z"
                                      transform="translate(-542.336 -203.748)"
                                      fill="#6d1e9e"
                                    />
                                  </g>
                                </g>
                                <g
                                  id="Group_1351"
                                  data-name="Group 1351"
                                  transform="translate(1.014 10.02)"
                                >
                                  <g id="Group_1350" data-name="Group 1350">
                                    <path
                                      id="Path_6289"
                                      data-name="Path 6289"
                                      d="M546.2,219.447a2.028,2.028,0,1,1,1.814-2.222A2.031,2.031,0,0,1,546.2,219.447Zm-.322-3.177a1.166,1.166,0,1,0,1.278,1.042A1.167,1.167,0,0,0,545.875,216.27Z"
                                      transform="translate(-543.515 -214.953)"
                                      fill="#6d1e9e"
                                    />
                                    <path
                                      id="Path_6290"
                                      data-name="Path 6290"
                                      d="M545.937,219.856a2.482,2.482,0,0,1-2.461-2.229,2.477,2.477,0,0,1,4.031-2.167,2.455,2.455,0,0,1,.9,1.668,2.48,2.48,0,0,1-2.215,2.715C546.106,219.852,546.022,219.856,545.937,219.856Zm.005-3.194a.654.654,0,0,0-.073,0h0a.716.716,0,0,0-.381,1.268.7.7,0,0,0,.525.158.716.716,0,0,0-.071-1.429Z"
                                      transform="translate(-543.464 -214.903)"
                                      fill="#6d1e9e"
                                    />
                                  </g>
                                </g>
                              </g>
                            </g>
                            <g
                              id="Group_1355"
                              data-name="Group 1355"
                              transform="translate(20.052 19.996)"
                            >
                              <g id="Group_1354" data-name="Group 1354">
                                <path
                                  id="Path_6291"
                                  data-name="Path 6291"
                                  d="M538.3,222.206l-4.766.482a.432.432,0,0,1-.473-.386l-.137-1.344a.432.432,0,0,1,.386-.473l4.766-.482a.432.432,0,0,1,.473.385l.136,1.345A.431.431,0,0,1,538.3,222.206Zm-4.424-.42,3.909-.4-.049-.486-3.908.4Z"
                                  transform="translate(-532.475 -219.552)"
                                  fill="#6d1e9e"
                                />
                                <path
                                  id="Path_6292"
                                  data-name="Path 6292"
                                  d="M533.439,223.088a.878.878,0,0,1-.874-.792l-.137-1.344a.881.881,0,0,1,.788-.964l4.765-.482a.88.88,0,0,1,.965.788l.136,1.343a.88.88,0,0,1-.786.965h0l-4.766.482A.751.751,0,0,1,533.439,223.088Z"
                                  transform="translate(-532.424 -219.501)"
                                  fill="#6d1e9e"
                                />
                              </g>
                            </g>
                          </g>
                          <g
                            id="Group_1358"
                            data-name="Group 1358"
                            transform="translate(530.015 192.02)"
                          >
                            <g
                              id="Group_1357"
                              data-name="Group 1357"
                              transform="translate(0)"
                            >
                              <path
                                id="Path_6293"
                                data-name="Path 6293"
                                d="M533.861,199.49a.431.431,0,0,1-.473-.385l-.619-6.111a.431.431,0,1,1,.858-.086l.619,6.11A.432.432,0,0,1,533.861,199.49Z"
                                transform="translate(-532.319 -192.071)"
                                fill="#6d1e9e"
                              />
                              <path
                                id="Path_6294"
                                data-name="Path 6294"
                                d="M533.765,199.89a.88.88,0,0,1-.874-.792l-.618-6.109a.88.88,0,0,1,.787-.965.88.88,0,0,1,.965.787l.619,6.111a.883.883,0,0,1-.787.964h0A.788.788,0,0,1,533.765,199.89Z"
                                transform="translate(-532.268 -192.02)"
                                fill="#6d1e9e"
                              />
                            </g>
                          </g>
                        </g>
                      </svg>