<svg
                        xmlns="http://www.w3.org/2000/svg"
                        width="47.602"
                        height="43.944"
                        viewBox="0 0 47.602 43.944"
                        className="mb-2"
                      >
                        <g
                          id="Group_1392"
                          data-name="Group 1392"
                          transform="translate(-20.961 -216.275)"
                        >
                          <path
                            id="Path_6332"
                            data-name="Path 6332"
                            d="M49.427,244.273a.805.805,0,0,1-.3-.057l-6.156-2.462a.795.795,0,0,1,.59-1.476l5.861,2.344,12.345-4.936L49.427,232.75l-12.344,4.937,2.217.887a.795.795,0,0,1-.59,1.475l-4.062-1.625a.794.794,0,0,1,0-1.475l14.484-5.792a.8.8,0,0,1,.591,0l14.484,5.792a.794.794,0,0,1,0,1.475l-14.484,5.792A.805.805,0,0,1,49.427,244.273Z"
                            transform="translate(-4.665 -5.244)"
                            fill="#6d1e9e"
                          />
                          <path
                            id="Path_6333"
                            data-name="Path 6333"
                            d="M49.427,276.054a.792.792,0,0,1-.3-.057L34.647,270.2a.794.794,0,1,1,.59-1.475L49.427,274.4l14.19-5.673a.794.794,0,1,1,.59,1.475L49.722,276A.792.792,0,0,1,49.427,276.054Z"
                            transform="translate(-4.665 -18.535)"
                            fill="#6d1e9e"
                          />
                          <path
                            id="Path_6334"
                            data-name="Path 6334"
                            d="M84.194,269.594a.792.792,0,0,1-.562-.233l-4.426-4.426a.794.794,0,0,1-.233-.562v-9.307a.795.795,0,1,1,1.589,0v8.978l4.194,4.193a.795.795,0,0,1-.562,1.356Z"
                            transform="translate(-20.522 -13.441)"
                            fill="#6d1e9e"
                          />
                          <path
                            id="Path_6335"
                            data-name="Path 6335"
                            d="M79.768,242.866a.8.8,0,0,1-.794-.795v-3.7a.8.8,0,0,1,.233-.562l4.55-4.55a.795.795,0,0,1,1.124,1.124L80.563,238.7v3.376A.8.8,0,0,1,79.768,242.866Z"
                            transform="translate(-20.522 -5.924)"
                            fill="#6d1e9e"
                          />
                          <path
                            id="Path_6336"
                            data-name="Path 6336"
                            d="M57.355,269.1a.794.794,0,0,1-.794-.794v-18.49a.795.795,0,0,1,1.589,0v18.49A.8.8,0,0,1,57.355,269.1Z"
                            transform="translate(-12.594 -11.585)"
                            fill="#6d1e9e"
                          />
                          <path
                            id="Path_6337"
                            data-name="Path 6337"
                            d="M87.947,232.774a3.185,3.185,0,1,1,3.185-3.185A3.189,3.189,0,0,1,87.947,232.774Zm0-4.781a1.6,1.6,0,1,0,1.6,1.6A1.6,1.6,0,0,0,87.947,227.993Z"
                            transform="translate(-22.57 -3.583)"
                            fill="#6d1e9e"
                          />
                          <path
                            id="Path_6338"
                            data-name="Path 6338"
                            d="M87.947,232.774a3.185,3.185,0,1,1,3.185-3.185A3.189,3.189,0,0,1,87.947,232.774Zm0-4.781a1.6,1.6,0,1,0,1.6,1.6A1.6,1.6,0,0,0,87.947,227.993Z"
                            transform="translate(-22.57 -3.583)"
                            fill="#6d1e9e"
                          />
                          <path
                            id="Path_6339"
                            data-name="Path 6339"
                            d="M56.047,222.645a3.185,3.185,0,1,1,3.186-3.185A3.189,3.189,0,0,1,56.047,222.645Zm0-4.781a1.6,1.6,0,1,0,1.6,1.6A1.6,1.6,0,0,0,56.047,217.864Z"
                            transform="translate(-11.285)"
                            fill="#6d1e9e"
                          />
                          <path
                            id="Path_6340"
                            data-name="Path 6340"
                            d="M87.947,280.786a3.185,3.185,0,1,1,3.185-3.185A3.189,3.189,0,0,1,87.947,280.786Zm0-4.782a1.6,1.6,0,1,0,1.6,1.6A1.6,1.6,0,0,0,87.947,276Z"
                            transform="translate(-22.57 -20.567)"
                            fill="#6d1e9e"
                          />
                          <path
                            id="Path_6341"
                            data-name="Path 6341"
                            d="M28.025,262.076a.795.795,0,0,1-.562-1.356l4.193-4.193V238.7l-4.317-4.318a.794.794,0,0,1,1.123-1.124l4.55,4.55a.8.8,0,0,1,.233.562v18.49a.794.794,0,0,1-.233.562l-4.426,4.426A.793.793,0,0,1,28.025,262.076Z"
                            transform="translate(-2.174 -5.924)"
                            fill="#6d1e9e"
                          />
                          <path
                            id="Path_6342"
                            data-name="Path 6342"
                            d="M24.146,232.774a3.185,3.185,0,1,1,3.185-3.185A3.189,3.189,0,0,1,24.146,232.774Zm0-4.781a1.6,1.6,0,1,0,1.6,1.6A1.6,1.6,0,0,0,24.146,227.993Z"
                            transform="translate(0 -3.583)"
                            fill="#6d1e9e"
                          />
                          <path
                            id="Path_6343"
                            data-name="Path 6343"
                            d="M24.146,232.774a3.185,3.185,0,1,1,3.185-3.185A3.189,3.189,0,0,1,24.146,232.774Zm0-4.781a1.6,1.6,0,1,0,1.6,1.6A1.6,1.6,0,0,0,24.146,227.993Z"
                            transform="translate(0 -3.583)"
                            fill="#6d1e9e"
                          />
                          <path
                            id="Path_6344"
                            data-name="Path 6344"
                            d="M24.146,280.786a3.185,3.185,0,1,1,3.185-3.185A3.189,3.189,0,0,1,24.146,280.786Zm0-4.782a1.6,1.6,0,1,0,1.6,1.6A1.6,1.6,0,0,0,24.146,276Z"
                            transform="translate(0 -20.567)"
                            fill="#6d1e9e"
                          />
                          <path
                            id="Path_6345"
                            data-name="Path 6345"
                            d="M57.355,230.062a.8.8,0,0,1-.794-.795v-4.8a.795.795,0,1,1,1.589,0v4.8A.8.8,0,0,1,57.355,230.062Z"
                            transform="translate(-12.594 -2.617)"
                            fill="#6d1e9e"
                          />
                        </g>
                      </svg>