<svg
                        xmlns="http://www.w3.org/2000/svg"
                        width="40.465"
                        height="40.466"
                        viewBox="0 0 40.465 40.466"
                      >
                        <g
                          id="Group_1387"
                          data-name="Group 1387"
                          transform="translate(-100.394 -1180.306)"
                        >
                          <path
                            id="Path_6309"
                            data-name="Path 6309"
                            d="M177.676,1229.219a1.981,1.981,0,0,1,0,3.431l-9.6,5.542-9.6,5.542a1.981,1.981,0,0,1-2.971-1.716v-22.167a1.981,1.981,0,0,1,2.971-1.716l9.6,5.542Z"
                            transform="translate(-43.962 -29.961)"
                            fill="#6d1e9e"
                          />
                          <path
                            id="Path_6310"
                            data-name="Path 6310"
                            d="M120.627,1220.771a20.233,20.233,0,1,1,20.233-20.232A20.255,20.255,0,0,1,120.627,1220.771Zm0-38.442a18.209,18.209,0,1,0,18.209,18.209A18.23,18.23,0,0,0,120.627,1182.329Z"
                            transform="translate(0 0)"
                            fill="#6d1e9e"
                          />
                        </g>
                      </svg>