 <svg
                        xmlns="http://www.w3.org/2000/svg"
                        width="44.891"
                        height="41.105"
                        viewBox="0 0 44.891 41.105"
                      >
                        <g
                          id="Group_1388"
                          data-name="Group 1388"
                          transform="translate(-481.503 -299.474)"
                        >
                          <path
                            id="Path_6311"
                            data-name="Path 6311"
                            d="M504.125,301.95a8.052,8.052,0,0,1,8.123,7.94,8.215,8.215,0,0,1-16.428,0,8.105,8.105,0,0,1,8.305-7.94ZM487.331,320.11h6.546c.352.534.534,1.07.871,1.576h-7.417a1.378,1.378,0,0,0-.871.367c-.184.168-.353.168-.353.367l-3.012,16.047h0c0,.169.182.169.182.169,0,.169.169.169.352.169h36.939c.339,0,.521,0,.7-.169a.488.488,0,0,0,.337-.534l3.013-15.881v-.337a.631.631,0,0,1-.536-.2H513.305a5.946,5.946,0,0,0,.886-1.576h10.261a2.145,2.145,0,0,1,1.225.7,2.282,2.282,0,0,1,.717,1.24v.367l-3.012,16.047a3.91,3.91,0,0,1-1.055,1.577,2.891,2.891,0,0,1-1.759.536H483.277a2.717,2.717,0,0,1-1.24-.7,1.971,1.971,0,0,1-.534-1.409V338.1l2.831-15.881a2.567,2.567,0,0,1,1.054-1.577,3.518,3.518,0,0,1,1.943-.534Zm27.225-10.418c0,5.66-10.431,22.243-10.431,22.243s-10.6-16.582-10.6-22.243a10.52,10.52,0,0,1,21.031,0Z"
                            transform="translate(0 0)"
                            fill="#6d1e9e"
                            fillRule="evenodd"
                          />
                        </g>
                      </svg>