<svg xmlns="http://www.w3.org/2000/svg" width="352.783" height="39" viewBox="0 0 352.783 39">
  <g id="Group_1548" data-name="Group 1548" transform="translate(-184 -24)">
    <g id="Group_1530" data-name="Group 1530" transform="translate(-176.88 -520.489)">
      <path id="Path_6550" data-name="Path 6550" d="M369.813,583.582l-8.933.009,22.127-37.45a3.138,3.138,0,0,1,4.3-1.107l2.513,1.482a3.138,3.138,0,0,1,1.109,4.3l-18.412,31.225A3.138,3.138,0,0,1,369.813,583.582Z" transform="translate(0 -0.102)" fill="#fff"/>
      <path id="Path_6551" data-name="Path 6551" d="M656.042,583.577l-8.9-.011,22.1-37.425a3.138,3.138,0,0,1,4.3-1.108l2.512,1.481a3.138,3.138,0,0,1,1.109,4.3l-18.41,31.221A3.138,3.138,0,0,1,656.042,583.577Z" transform="translate(-265.889 -0.102)" fill="#fff"/>
      <path id="Path_6552" data-name="Path 6552" d="M941.858,583.467l-8.9-.011,22.1-37.425a3.138,3.138,0,0,1,4.3-1.108l2.512,1.481a3.138,3.138,0,0,1,1.109,4.3l-18.41,31.221A3.138,3.138,0,0,1,941.858,583.467Z" transform="translate(-531.362)" fill="orange"/>
      <path id="Path_6553" data-name="Path 6553" d="M1346.978,580.944l-9.377.472,11.57-19.584a3.066,3.066,0,0,1,4.2-1.082l2.637,1.555a3.066,3.066,0,0,1,1.084,4.2l-7.624,12.936A3.066,3.066,0,0,1,1346.978,580.944Z" transform="translate(-907.199 -14.709)" fill="#fff"/>
    </g>
    <g id="Group_1544" data-name="Group 1544" transform="translate(-58.182 -1268.743)">
      <g id="Group_1531" data-name="Group 1531" transform="translate(357.895 1301.847)">
        <path id="Path_6554" data-name="Path 6554" d="M377.145,1323.919a1.067,1.067,0,0,1-1.067,1.067,1.071,1.071,0,0,1-.768-.312,1.028,1.028,0,0,1-.312-.755v-16.063a.214.214,0,0,0-.182-.234q-.208-.052-.26.2l-3.033,11.585a2.067,2.067,0,0,1-.846,1.2,2.454,2.454,0,0,1-2.812,0,2.066,2.066,0,0,1-.846-1.2l-3.033-11.6a.2.2,0,0,0-.26-.182.214.214,0,0,0-.182.234v16.063a1.029,1.029,0,0,1-.312.755,1.072,1.072,0,0,1-.768.312,1.067,1.067,0,0,1-1.067-1.067v-16.063a2.35,2.35,0,0,1,1.939-2.33,2.386,2.386,0,0,1,1.653.26,2.053,2.053,0,0,1,1.028,1.328l3.046,11.624a.192.192,0,0,0,.208.156.182.182,0,0,0,.208-.156l3.046-11.624a2.052,2.052,0,0,1,1.028-1.328,2.372,2.372,0,0,1,1.653-.26,2.35,2.35,0,0,1,1.94,2.33Z" transform="translate(-360.738 -1304.82)" fill="#fff"/>
        <path id="Path_6555" data-name="Path 6555" d="M373.235,1322.8a1.737,1.737,0,0,1-1.223-.5,1.7,1.7,0,0,1-.514-1.229v-12.688l-2.183,8.338a2.718,2.718,0,0,1-1.105,1.57,3.111,3.111,0,0,1-3.568,0,2.713,2.713,0,0,1-1.1-1.566l-2.183-8.348v12.7a1.691,1.691,0,0,1-.5,1.219,1.745,1.745,0,0,1-1.233.5,1.724,1.724,0,0,1-1.724-1.724V1305.01a3.007,3.007,0,0,1,2.477-2.976,3.036,3.036,0,0,1,2.089.331,2.7,2.7,0,0,1,1.349,1.742l2.617,9.988,2.619-9.993a2.693,2.693,0,0,1,1.341-1.733,3.027,3.027,0,0,1,2.1-.333,3.007,3.007,0,0,1,2.473,2.975v16.063a1.724,1.724,0,0,1-1.724,1.724Zm-1.115-18.662a.865.865,0,0,1,.691.875v16.063a.373.373,0,0,0,.12.29.409.409,0,0,0,.3.12.41.41,0,0,0,.41-.41V1305.01a1.644,1.644,0,0,0-.393-1.1,1.661,1.661,0,0,0-1.009-.583,1.721,1.721,0,0,0-1.213.188,1.391,1.391,0,0,0-.712.916l-3.042,11.609a.836.836,0,0,1-.849.667.846.846,0,0,1-.846-.654l-3.044-11.617a1.4,1.4,0,0,0-.716-.922,1.73,1.73,0,0,0-1.2-.187,1.693,1.693,0,0,0-1.407,1.685v16.063a.41.41,0,0,0,.41.41.419.419,0,0,0,.313-.129.366.366,0,0,0,.11-.281V1305.01a.88.88,0,0,1,1.739-.2l3.029,11.583a1.415,1.415,0,0,0,.587.825,1.8,1.8,0,0,0,2.055,0,1.421,1.421,0,0,0,.59-.829l3.029-11.571a.892.892,0,0,1,.392-.583A.852.852,0,0,1,372.121,1304.136Zm-5.268,11.582,0,.008Zm-6.346-10.594,0,.011Z" transform="translate(-357.895 -1301.975)" fill="#fff"/>
      </g>
      <g id="Group_1532" data-name="Group 1532" transform="translate(380.674 1301.843)">
        <path id="Path_6556" data-name="Path 6556" d="M491.621,1322.833a1.028,1.028,0,0,1,.755.312,1.038,1.038,0,0,1,0,1.51,1.028,1.028,0,0,1-.755.313H483.8a1.067,1.067,0,0,1-1.067-1.067v-17.378a1.067,1.067,0,0,1,1.067-1.067h7.823a1.028,1.028,0,0,1,.755.312,1.038,1.038,0,0,1,0,1.51,1.029,1.029,0,0,1-.755.312h-6.743v6.547h5.871a1.067,1.067,0,0,1,1.08,1.08,1.028,1.028,0,0,1-.312.755,1.044,1.044,0,0,1-.768.312h-5.871v6.547Z" transform="translate(-482.074 -1304.799)" fill="#fff"/>
        <path id="Path_6557" data-name="Path 6557" d="M488.778,1322.782h-7.823a1.723,1.723,0,0,1-1.724-1.724V1303.68a1.723,1.723,0,0,1,1.724-1.724h7.823a1.69,1.69,0,0,1,1.22.5,1.7,1.7,0,0,1-.01,2.448,1.682,1.682,0,0,1-1.21.5h-6.086v5.233h5.213a1.731,1.731,0,1,1,0,3.462h-5.213v5.233h6.086a1.691,1.691,0,0,1,1.22.5,1.7,1.7,0,0,1-.01,2.449A1.682,1.682,0,0,1,488.778,1322.782Zm-7.823-19.512a.409.409,0,0,0-.41.41v17.378a.41.41,0,0,0,.41.41h7.823a.373.373,0,0,0,.29-.12.366.366,0,0,0,.133-.29.356.356,0,0,0-.124-.281.383.383,0,0,0-.3-.129h-7.4v-7.862h6.528a.388.388,0,0,0,.3-.12.373.373,0,0,0,.12-.29.41.41,0,0,0-.423-.423h-6.528v-7.862h7.4a.373.373,0,0,0,.29-.12.366.366,0,0,0,.133-.29.356.356,0,0,0-.124-.281.384.384,0,0,0-.3-.129Z" transform="translate(-479.231 -1301.956)" fill="#fff"/>
      </g>
      <g id="Group_1533" data-name="Group 1533" transform="translate(395.838 1301.843)">
        <path id="Path_6558" data-name="Path 6558" d="M570.859,1323.9a1.067,1.067,0,1,1-2.135,0v-16.31h-4.153a1.067,1.067,0,1,1,0-2.135H575a1.043,1.043,0,0,1,.768.312,1.068,1.068,0,0,1,0,1.51,1.044,1.044,0,0,1-.768.312h-4.139Z" transform="translate(-562.847 -1304.799)" fill="#fff"/>
        <path id="Path_6559" data-name="Path 6559" d="M566.948,1322.782a1.724,1.724,0,0,1-1.724-1.724v-15.653h-3.5a1.724,1.724,0,1,1,0-3.449h10.427a1.725,1.725,0,1,1,0,3.449h-3.482v15.653a1.724,1.724,0,0,1-1.725,1.724Zm-5.22-19.512a.41.41,0,1,0,0,.821h4.81v16.967a.41.41,0,1,0,.821,0v-16.967h4.8a.388.388,0,0,0,.3-.12.411.411,0,0,0,0-.581.388.388,0,0,0-.3-.12Z" transform="translate(-560.004 -1301.956)" fill="#fff"/>
      </g>
      <g id="Group_1534" data-name="Group 1534" transform="translate(413.164 1301.817)">
        <path id="Path_6560" data-name="Path 6560" d="M659.135,1318.581l-1.223,5.441a1.074,1.074,0,0,1-2.1-.469l3.54-15.7a3.058,3.058,0,0,1,1.341-2.057,3.359,3.359,0,0,1,1.822-.482,3.293,3.293,0,0,1,1.822.495,3.132,3.132,0,0,1,1.341,2.043l3.528,15.7a.99.99,0,0,1-.143.807,1.06,1.06,0,0,1-1.471.326,1,1,0,0,1-.469-.664l-1.224-5.441Zm6.3-2.083-1.848-8.175a1,1,0,0,0-.4-.7,1.193,1.193,0,0,0-.664-.156,1.267,1.267,0,0,0-.677.143,1.036,1.036,0,0,0-.4.716L659.6,1316.5Z" transform="translate(-655.134 -1304.66)" fill="#fff"/>
        <path id="Path_6561" data-name="Path 6561" d="M665.329,1322.669a1.729,1.729,0,0,1-.919-.267,1.655,1.655,0,0,1-.765-1.086l-1.107-4.92h-5.717l-1.108,4.928a1.731,1.731,0,0,1-3.379-.749l3.542-15.706a3.7,3.7,0,0,1,1.635-2.47,4.017,4.017,0,0,1,2.169-.58,3.953,3.953,0,0,1,2.178.6,3.78,3.78,0,0,1,1.626,2.451l3.528,15.7a1.645,1.645,0,0,1-.235,1.311,1.715,1.715,0,0,1-1.059.747l-.018,0A1.79,1.79,0,0,1,665.329,1322.669Zm-5.649-19.537a2.694,2.694,0,0,0-1.473.381,2.412,2.412,0,0,0-1.048,1.641l-3.541,15.7a.417.417,0,0,0,.816.169l1.336-5.943h7.82l1.339,5.954a.349.349,0,0,0,.174.25.406.406,0,0,0,.315.061.4.4,0,0,0,.256-.183.34.34,0,0,0,.057-.3l-3.53-15.709a2.48,2.48,0,0,0-1.056-1.636A2.629,2.629,0,0,0,659.679,1303.131Zm3.738,11.182h-7.475l2.015-8.976a1.651,1.651,0,0,1,.7-1.131,1.879,1.879,0,0,1,1.023-.242,1.813,1.813,0,0,1,1.017.26,1.63,1.63,0,0,1,.694,1.128ZM657.584,1313h4.188l-1.667-7.373a.582.582,0,0,0-.107-.288l-.02-.013a.615.615,0,0,0-.3-.046.815.815,0,0,0-.324.041l-.006,0a.755.755,0,0,0-.108.3Z" transform="translate(-652.293 -1301.817)" fill="#fff"/>
      </g>
      <g id="Group_1535" data-name="Group 1535" transform="translate(431.44 1301.818)">
        <path id="Path_6562" data-name="Path 6562" d="M753.305,1305.814a1.075,1.075,0,0,1,1.953.338l3.528,15.7a1.034,1.034,0,0,0,.4.716,1.265,1.265,0,0,0,.677.143,1.193,1.193,0,0,0,.664-.156,1,1,0,0,0,.4-.7l3.541-15.7a1,1,0,0,1,.469-.664,1.06,1.06,0,0,1,1.471.326.991.991,0,0,1,.143.807l-3.528,15.7a3.132,3.132,0,0,1-1.341,2.043,3.292,3.292,0,0,1-1.822.495,3.358,3.358,0,0,1-1.823-.482,3.056,3.056,0,0,1-1.341-2.057l-3.541-15.7A1.059,1.059,0,0,1,753.305,1305.814Z" transform="translate(-752.48 -1304.663)" fill="#fff"/>
        <path id="Path_6563" data-name="Path 6563" d="M757.027,1322.673a4.018,4.018,0,0,1-2.172-.582,3.7,3.7,0,0,1-1.633-2.472l-3.54-15.695a1.73,1.73,0,0,1,.226-1.3l.006-.009a1.732,1.732,0,0,1,3.144.539l3.53,15.709a.789.789,0,0,0,.108.3l.011.007h0a.89.89,0,0,0,.32.038.62.62,0,0,0,.3-.046l.023-.015h0a.566.566,0,0,0,.1-.271l3.544-15.714a1.651,1.651,0,0,1,.763-1.078,1.724,1.724,0,0,1,1.29-.228l.019,0a1.719,1.719,0,0,1,1.061.752,1.647,1.647,0,0,1,.229,1.317l-3.525,15.688a3.781,3.781,0,0,1-1.625,2.452A3.951,3.951,0,0,1,757.027,1322.673Zm-6.005-19.35a.405.405,0,0,0-.056.319l3.539,15.69a2.412,2.412,0,0,0,1.046,1.643,2.7,2.7,0,0,0,1.476.383,2.628,2.628,0,0,0,1.467-.39,2.481,2.481,0,0,0,1.056-1.636l3.527-15.7a.343.343,0,0,0-.052-.3.4.4,0,0,0-.574-.127.345.345,0,0,0-.173.242l-3.542,15.707a1.615,1.615,0,0,1-.691,1.112,1.812,1.812,0,0,1-1.017.259,1.88,1.88,0,0,1-1.023-.241,1.657,1.657,0,0,1-.7-1.137l-3.526-15.692a.4.4,0,0,0-.183-.255.4.4,0,0,0-.315-.053A.4.4,0,0,0,751.022,1303.324Z" transform="translate(-749.642 -1301.822)" fill="#fff"/>
      </g>
      <g id="Group_1536" data-name="Group 1536" transform="translate(450.82 1301.843)">
        <path id="Path_6564" data-name="Path 6564" d="M865.264,1322.833a1.028,1.028,0,0,1,.755.312,1.039,1.039,0,0,1,0,1.51,1.028,1.028,0,0,1-.755.313H857.44a1.067,1.067,0,0,1-1.068-1.067v-17.378a1.067,1.067,0,0,1,1.068-1.067h7.823a1.028,1.028,0,0,1,.755.312,1.039,1.039,0,0,1,0,1.51,1.029,1.029,0,0,1-.755.312h-6.743v6.547h5.871a1.067,1.067,0,0,1,1.08,1.08,1.029,1.029,0,0,1-.312.755,1.045,1.045,0,0,1-.768.312h-5.871v6.547Z" transform="translate(-855.716 -1304.799)" fill="#fff"/>
        <path id="Path_6565" data-name="Path 6565" d="M862.421,1322.782H854.6a1.724,1.724,0,0,1-1.725-1.724V1303.68a1.724,1.724,0,0,1,1.725-1.724h7.823a1.69,1.69,0,0,1,1.22.5,1.7,1.7,0,0,1-.01,2.448,1.682,1.682,0,0,1-1.21.5h-6.086v5.233h5.213a1.731,1.731,0,1,1,0,3.462h-5.213v5.233h6.086a1.691,1.691,0,0,1,1.22.5,1.7,1.7,0,0,1-.01,2.449A1.682,1.682,0,0,1,862.421,1322.782ZM854.6,1303.27a.409.409,0,0,0-.41.41v17.378a.41.41,0,0,0,.41.41h7.823a.373.373,0,0,0,.29-.12.366.366,0,0,0,.133-.29.355.355,0,0,0-.123-.281.383.383,0,0,0-.3-.129h-7.4v-7.862h6.528a.388.388,0,0,0,.3-.12.373.373,0,0,0,.12-.29.41.41,0,0,0-.423-.423h-6.528v-7.862h7.4a.373.373,0,0,0,.29-.12.366.366,0,0,0,.133-.29.355.355,0,0,0-.123-.281.384.384,0,0,0-.3-.129Z" transform="translate(-852.873 -1301.956)" fill="#fff"/>
      </g>
      <g id="Group_1537" data-name="Group 1537" transform="translate(467.156 1301.843)">
        <path id="Path_6566" data-name="Path 6566" d="M945.535,1323.9a1.028,1.028,0,0,1-.312.755,1.043,1.043,0,0,1-.768.313,1.067,1.067,0,0,1-1.067-1.067v-17.378a1.067,1.067,0,0,1,1.067-1.067h4.569a5.415,5.415,0,0,1,1.809,10.518,12.839,12.839,0,0,1,2.213,2.642,14.328,14.328,0,0,1,1.731,5.1,1.081,1.081,0,0,1-.182.794,1.059,1.059,0,0,1-.7.443,1.081,1.081,0,0,1-.794-.182,1.057,1.057,0,0,1-.442-.7,12.234,12.234,0,0,0-1.432-4.335,13.667,13.667,0,0,0-3.332-3.449h-2.356Zm0-16.3v6.535h3.489a3.267,3.267,0,1,0,0-6.535Z" transform="translate(-942.73 -1304.799)" fill="#fff"/>
        <path id="Path_6567" data-name="Path 6567" d="M941.611,1322.782a1.724,1.724,0,0,1-1.724-1.724V1303.68a1.724,1.724,0,0,1,1.724-1.724h4.569a6.079,6.079,0,0,1,2.952,11.382,12.63,12.63,0,0,1,1.631,2.092,15.027,15.027,0,0,1,1.818,5.334,1.753,1.753,0,0,1-.286,1.274,1.732,1.732,0,0,1-1.132.721,1.754,1.754,0,0,1-1.277-.286,1.729,1.729,0,0,1-.721-1.132,11.675,11.675,0,0,0-1.344-4.1,12.755,12.755,0,0,0-3-3.137h-1.472v6.958a1.724,1.724,0,0,1-1.737,1.724Zm.423-10h3.239l.178.138a14.354,14.354,0,0,1,3.49,3.627,12.915,12.915,0,0,1,1.518,4.567.4.4,0,0,0,.176.278.415.415,0,0,0,.314.067.4.4,0,0,0,.266-.175.416.416,0,0,0,.067-.314,13.729,13.729,0,0,0-1.64-4.855,12.232,12.232,0,0,0-2.1-2.508l-.795-.743,1.027-.358a4.758,4.758,0,0,0-1.593-9.24h-4.569a.409.409,0,0,0-.41.41v17.378a.41.41,0,0,0,.41.41.388.388,0,0,0,.3-.12.373.373,0,0,0,.12-.29Zm4.146-.834h-4.146V1304.1h4.146a3.924,3.924,0,1,1,0,7.849Zm-2.831-1.314h2.831a2.61,2.61,0,1,0,0-5.22h-2.831Z" transform="translate(-939.887 -1301.956)" fill="#fff"/>
      </g>
      <g id="Group_1538" data-name="Group 1538" transform="translate(484.911 1301.843)">
        <path id="Path_6568" data-name="Path 6568" d="M1049.349,1311.626a1.029,1.029,0,0,1-.755.312,1.072,1.072,0,0,1-.768-.312,1.028,1.028,0,0,1-.312-.755,2.979,2.979,0,0,0-1.041-2.278,4.036,4.036,0,0,0-5.324,0,2.978,2.978,0,0,0-1.041,2.278,2.656,2.656,0,0,0,1.224,2.408,9.654,9.654,0,0,0,2.708.885,11.56,11.56,0,0,1,3.866,1.354,4.608,4.608,0,0,1,1.757,4.035,5.034,5.034,0,0,1-1.744,3.866,6.2,6.2,0,0,1-8.2,0,5.017,5.017,0,0,1-1.757-3.866,1.067,1.067,0,0,1,1.068-1.067,1.044,1.044,0,0,1,.768.313,1.028,1.028,0,0,1,.312.755,2.978,2.978,0,0,0,1.041,2.278,4.036,4.036,0,0,0,5.324,0,2.979,2.979,0,0,0,1.041-2.278,2.657,2.657,0,0,0-1.224-2.408,9.677,9.677,0,0,0-2.708-.885,11.555,11.555,0,0,1-3.866-1.354,4.608,4.608,0,0,1-1.757-4.035,5.018,5.018,0,0,1,1.757-3.866,6.2,6.2,0,0,1,8.2,0,5.034,5.034,0,0,1,1.744,3.866A1.029,1.029,0,0,1,1049.349,1311.626Z" transform="translate(-1037.302 -1304.799)" fill="#fff"/>
        <path id="Path_6569" data-name="Path 6569" d="M1040.974,1322.782a6.549,6.549,0,0,1-4.542-1.72,5.671,5.671,0,0,1-1.973-4.353,1.731,1.731,0,0,1,3.462,0,2.328,2.328,0,0,0,.827,1.793,3.379,3.379,0,0,0,4.437,0,2.33,2.33,0,0,0,.828-1.794,2,2,0,0,0-.92-1.854,8.832,8.832,0,0,0-2.494-.8,11.983,11.983,0,0,1-4.1-1.458,5.245,5.245,0,0,1-2.036-4.573,5.672,5.672,0,0,1,1.974-4.354,6.858,6.858,0,0,1,9.081,0,5.691,5.691,0,0,1,1.961,4.354,1.724,1.724,0,0,1-1.725,1.724,1.737,1.737,0,0,1-1.223-.5,1.7,1.7,0,0,1-.514-1.229,2.33,2.33,0,0,0-.827-1.793,3.38,3.38,0,0,0-4.437,0,2.33,2.33,0,0,0-.828,1.793,2,2,0,0,0,.92,1.854,8.829,8.829,0,0,0,2.494.8,11.985,11.985,0,0,1,4.1,1.458,5.244,5.244,0,0,1,2.036,4.573,5.689,5.689,0,0,1-1.959,4.352A6.582,6.582,0,0,1,1040.974,1322.782Zm-4.79-6.482a.41.41,0,0,0-.41.41,4.351,4.351,0,0,0,1.541,3.379,5.544,5.544,0,0,0,7.32,0,4.365,4.365,0,0,0,1.527-3.378,3.963,3.963,0,0,0-1.481-3.5,10.622,10.622,0,0,0-3.625-1.247,10.092,10.092,0,0,1-2.912-.967,3.332,3.332,0,0,1-1.537-2.968,3.624,3.624,0,0,1,1.256-2.763,4.692,4.692,0,0,1,6.211,0,3.623,3.623,0,0,1,1.255,2.762.373.373,0,0,0,.12.29.409.409,0,0,0,.3.12.409.409,0,0,0,.41-.41,4.368,4.368,0,0,0-1.529-3.38,5.545,5.545,0,0,0-7.317,0,4.353,4.353,0,0,0-1.542,3.38,3.963,3.963,0,0,0,1.481,3.5,10.617,10.617,0,0,0,3.625,1.247,10.109,10.109,0,0,1,2.912.967,3.332,3.332,0,0,1,1.537,2.968,3.624,3.624,0,0,1-1.256,2.764,4.693,4.693,0,0,1-6.211,0,3.622,3.622,0,0,1-1.255-2.762.373.373,0,0,0-.12-.29A.387.387,0,0,0,1036.184,1316.3Z" transform="translate(-1034.459 -1301.956)" fill="#fff"/>
      </g>
      <g id="Group_1539" data-name="Group 1539" transform="translate(503.251 1301.843)">
        <path id="Path_6570" data-name="Path 6570" d="M1144.542,1322.833a1.029,1.029,0,0,1,.755.312,1.038,1.038,0,0,1,0,1.51,1.028,1.028,0,0,1-.755.313h-7.823a1.067,1.067,0,0,1-1.068-1.067v-17.378a1.067,1.067,0,0,1,1.068-1.067h7.823a1.028,1.028,0,0,1,.755.312,1.038,1.038,0,0,1,0,1.51,1.029,1.029,0,0,1-.755.312H1137.8v6.547h5.871a1.067,1.067,0,0,1,1.08,1.08,1.028,1.028,0,0,1-.312.755,1.044,1.044,0,0,1-.768.312H1137.8v6.547Z" transform="translate(-1134.994 -1304.799)" fill="#fff"/>
        <path id="Path_6571" data-name="Path 6571" d="M1141.7,1322.782h-7.823a1.724,1.724,0,0,1-1.725-1.724V1303.68a1.724,1.724,0,0,1,1.725-1.724h7.823a1.69,1.69,0,0,1,1.219.5,1.7,1.7,0,0,1-.009,2.448,1.682,1.682,0,0,1-1.21.5h-6.086v5.233h5.214a1.731,1.731,0,1,1,0,3.462h-5.214v5.233h6.086a1.69,1.69,0,0,1,1.219.5,1.7,1.7,0,0,1-.009,2.449A1.682,1.682,0,0,1,1141.7,1322.782Zm-7.823-19.512a.41.41,0,0,0-.41.41v17.378a.41.41,0,0,0,.41.41h7.823a.373.373,0,0,0,.29-.12.366.366,0,0,0,.133-.29.356.356,0,0,0-.124-.281.383.383,0,0,0-.3-.129h-7.4v-7.862h6.528a.388.388,0,0,0,.3-.12.373.373,0,0,0,.12-.29.41.41,0,0,0-.423-.423H1134.3v-7.862h7.4a.373.373,0,0,0,.29-.12.366.366,0,0,0,.133-.29.356.356,0,0,0-.124-.281.384.384,0,0,0-.3-.129Z" transform="translate(-1132.151 -1301.956)" fill="#fff"/>
      </g>
      <g id="Group_1540" data-name="Group 1540" transform="translate(530.612 1301.843)">
        <path id="Path_6572" data-name="Path 6572" d="M1283.539,1323.9a1.028,1.028,0,0,1-.312.755,1.043,1.043,0,0,1-.768.313,1.067,1.067,0,0,1-1.067-1.067v-17.378a1.067,1.067,0,0,1,1.067-1.067h3.918a5.415,5.415,0,0,1,0,10.83h-2.838Zm0-16.31v6.547h2.838a3.274,3.274,0,0,0,0-6.547Z" transform="translate(-1280.734 -1304.799)" fill="#fff"/>
        <path id="Path_6573" data-name="Path 6573" d="M1279.615,1322.782a1.724,1.724,0,0,1-1.724-1.724V1303.68a1.724,1.724,0,0,1,1.724-1.724h3.918a6.072,6.072,0,0,1,0,12.144h-2.181v6.958a1.724,1.724,0,0,1-1.737,1.724Zm0-19.512a.409.409,0,0,0-.41.41v17.378a.41.41,0,0,0,.41.41.388.388,0,0,0,.3-.12.373.373,0,0,0,.12-.29v-8.272h3.495a4.758,4.758,0,1,0,0-9.516Zm3.918,8.682h-3.495v-7.862h3.495a3.931,3.931,0,0,1,0,7.862Zm-2.181-1.314h2.181a2.617,2.617,0,0,0,0-5.233h-2.181Z" transform="translate(-1277.891 -1301.956)" fill="#fff"/>
      </g>
      <g id="Group_1541" data-name="Group 1541" transform="translate(546.96 1301.843)">
        <path id="Path_6574" data-name="Path 6574" d="M1378.238,1322.833a1.067,1.067,0,1,1,0,2.135h-8.7a1.067,1.067,0,0,1-1.067-1.067v-17.378a1.067,1.067,0,0,1,1.067-1.067,1.044,1.044,0,0,1,.768.312,1.029,1.029,0,0,1,.312.755v16.31Z" transform="translate(-1367.818 -1304.799)" fill="#fff"/>
        <path id="Path_6575" data-name="Path 6575" d="M1375.395,1322.782h-8.7a1.724,1.724,0,0,1-1.724-1.724V1303.68a1.731,1.731,0,0,1,3.462,0v15.653h6.958a1.724,1.724,0,1,1,0,3.449Zm-8.7-19.512a.409.409,0,0,0-.41.41v17.378a.41.41,0,0,0,.41.41h8.7a.41.41,0,1,0,0-.821h-8.272V1303.68a.373.373,0,0,0-.12-.29A.388.388,0,0,0,1366.7,1303.27Z" transform="translate(-1364.975 -1301.956)" fill="#fff"/>
      </g>
      <g id="Group_1542" data-name="Group 1542" transform="translate(563.608 1301.843)">
        <path id="Path_6576" data-name="Path 6576" d="M1466.707,1306.523a1.029,1.029,0,0,1,.312-.755,1.071,1.071,0,0,1,.768-.312,1.067,1.067,0,0,1,1.067,1.067v12.6a5.851,5.851,0,0,1-11.7,0v-12.6a1.067,1.067,0,0,1,1.068-1.067,1.044,1.044,0,0,1,.768.312,1.029,1.029,0,0,1,.312.755v12.6a3.7,3.7,0,1,0,7.407,0Z" transform="translate(-1456.496 -1304.799)" fill="#fff"/>
        <path id="Path_6577" data-name="Path 6577" d="M1460.168,1322.782a6.524,6.524,0,0,1-6.515-6.5v-12.6a1.731,1.731,0,0,1,3.462,0v12.6a3.046,3.046,0,1,0,6.092,0v-12.6a1.691,1.691,0,0,1,.5-1.219,1.744,1.744,0,0,1,1.233-.5,1.724,1.724,0,0,1,1.724,1.724v12.6a6.523,6.523,0,0,1-6.5,6.5Zm-4.79-19.512a.41.41,0,0,0-.41.41v12.6a5.194,5.194,0,0,0,10.388,0v-12.6a.409.409,0,0,0-.41-.41.419.419,0,0,0-.313.129.365.365,0,0,0-.11.281v12.6a4.368,4.368,0,0,1-4.354,4.367,4.39,4.39,0,0,1-4.367-4.367v-12.6a.373.373,0,0,0-.12-.29A.388.388,0,0,0,1455.378,1303.27Z" transform="translate(-1453.653 -1301.956)" fill="#fff"/>
      </g>
      <g id="Group_1543" data-name="Group 1543" transform="translate(581.949 1301.843)">
        <path id="Path_6578" data-name="Path 6578" d="M1566.235,1311.626a1.029,1.029,0,0,1-.755.312,1.072,1.072,0,0,1-.768-.312,1.029,1.029,0,0,1-.312-.755,2.978,2.978,0,0,0-1.041-2.278,4.036,4.036,0,0,0-5.324,0,2.978,2.978,0,0,0-1.041,2.278,2.656,2.656,0,0,0,1.224,2.408,9.653,9.653,0,0,0,2.708.885,11.559,11.559,0,0,1,3.866,1.354,4.607,4.607,0,0,1,1.757,4.035,5.034,5.034,0,0,1-1.744,3.866,6.2,6.2,0,0,1-8.2,0,5.017,5.017,0,0,1-1.757-3.866,1.067,1.067,0,0,1,1.067-1.067,1.044,1.044,0,0,1,.768.313,1.028,1.028,0,0,1,.312.755,2.978,2.978,0,0,0,1.041,2.278,4.036,4.036,0,0,0,5.324,0,2.978,2.978,0,0,0,1.041-2.278,2.657,2.657,0,0,0-1.223-2.408,9.678,9.678,0,0,0-2.708-.885,11.553,11.553,0,0,1-3.866-1.354,4.608,4.608,0,0,1-1.757-4.035,5.018,5.018,0,0,1,1.757-3.866,6.2,6.2,0,0,1,8.2,0,5.035,5.035,0,0,1,1.744,3.866A1.029,1.029,0,0,1,1566.235,1311.626Z" transform="translate(-1554.188 -1304.799)" fill="#fff"/>
        <path id="Path_6579" data-name="Path 6579" d="M1557.86,1322.782a6.549,6.549,0,0,1-4.542-1.72,5.671,5.671,0,0,1-1.973-4.353,1.731,1.731,0,0,1,3.462,0,2.328,2.328,0,0,0,.827,1.793,3.379,3.379,0,0,0,4.437,0,2.33,2.33,0,0,0,.828-1.794,2,2,0,0,0-.92-1.854,8.83,8.83,0,0,0-2.494-.8,11.984,11.984,0,0,1-4.1-1.458,5.245,5.245,0,0,1-2.036-4.573,5.673,5.673,0,0,1,1.974-4.354,6.859,6.859,0,0,1,9.081,0,5.691,5.691,0,0,1,1.961,4.354,1.724,1.724,0,0,1-1.725,1.724,1.736,1.736,0,0,1-1.223-.5,1.7,1.7,0,0,1-.514-1.229,2.33,2.33,0,0,0-.827-1.793,3.38,3.38,0,0,0-4.437,0,2.33,2.33,0,0,0-.828,1.793,2,2,0,0,0,.92,1.854,8.829,8.829,0,0,0,2.494.8,11.985,11.985,0,0,1,4.1,1.458,5.245,5.245,0,0,1,2.036,4.573,5.689,5.689,0,0,1-1.959,4.352A6.582,6.582,0,0,1,1557.86,1322.782Zm-4.79-6.482a.409.409,0,0,0-.41.41,4.351,4.351,0,0,0,1.541,3.379,5.544,5.544,0,0,0,7.32,0,4.365,4.365,0,0,0,1.527-3.378,3.962,3.962,0,0,0-1.481-3.5,10.622,10.622,0,0,0-3.625-1.247,10.092,10.092,0,0,1-2.912-.967,3.332,3.332,0,0,1-1.537-2.968,3.623,3.623,0,0,1,1.256-2.763,4.692,4.692,0,0,1,6.211,0,3.623,3.623,0,0,1,1.254,2.762.374.374,0,0,0,.12.29.409.409,0,0,0,.3.12.41.41,0,0,0,.41-.41,4.367,4.367,0,0,0-1.53-3.38,5.545,5.545,0,0,0-7.316,0,4.352,4.352,0,0,0-1.542,3.38,3.963,3.963,0,0,0,1.481,3.5,10.621,10.621,0,0,0,3.625,1.247,10.107,10.107,0,0,1,2.912.967,3.332,3.332,0,0,1,1.537,2.968,3.625,3.625,0,0,1-1.255,2.764,4.693,4.693,0,0,1-6.211,0,3.622,3.622,0,0,1-1.254-2.762.373.373,0,0,0-.12-.29A.388.388,0,0,0,1553.069,1316.3Z" transform="translate(-1551.345 -1301.956)" fill="#fff"/>
      </g>
    </g>
  </g>
</svg>
