<svg xmlns="http://www.w3.org/2000/svg" width="307.718" height="33.366" viewBox="0 0 307.718 33.366">
  <g id="Group_1613" data-name="Group 1613" transform="translate(-184 -24)">
    <g id="Group_1610" data-name="Group 1610" transform="translate(285.497 31.894)">
      <g id="Group_1597" data-name="Group 1597" transform="translate(0 0.026)">
        <path id="Path_6867" data-name="Path 6867" d="M987.276,3341.8a.928.928,0,0,1-.929.928.932.932,0,0,1-.668-.272.9.9,0,0,1-.272-.656v-13.973a.186.186,0,0,0-.158-.2q-.182-.046-.227.17l-2.638,10.077a1.8,1.8,0,0,1-.736,1.042,2.134,2.134,0,0,1-2.446,0,1.8,1.8,0,0,1-.736-1.042l-2.638-10.089a.178.178,0,0,0-.227-.158.186.186,0,0,0-.158.2V3341.8a.9.9,0,0,1-.272.656.934.934,0,0,1-.668.272.928.928,0,0,1-.928-.928v-13.973a2.044,2.044,0,0,1,1.687-2.027,2.076,2.076,0,0,1,1.438.227,1.786,1.786,0,0,1,.894,1.155l2.65,10.112a.167.167,0,0,0,.181.136.158.158,0,0,0,.181-.136l2.65-10.112a1.785,1.785,0,0,1,.895-1.155,2.063,2.063,0,0,1,1.438-.227,2.045,2.045,0,0,1,1.687,2.027Z" transform="translate(-973.003 -3325.191)" fill="#fff"/>
        <path id="Path_6868" data-name="Path 6868" d="M984.545,3341.5a1.511,1.511,0,0,1-1.064-.431,1.479,1.479,0,0,1-.447-1.069v-11.037l-1.9,7.252a2.367,2.367,0,0,1-.961,1.366,2.705,2.705,0,0,1-3.1,0,2.362,2.362,0,0,1-.958-1.363l-1.9-7.261V3340a1.471,1.471,0,0,1-.439,1.061,1.518,1.518,0,0,1-1.073.439,1.5,1.5,0,0,1-1.5-1.5v-13.973a2.616,2.616,0,0,1,2.155-2.588,2.642,2.642,0,0,1,1.817.287,2.352,2.352,0,0,1,1.173,1.515l2.277,8.688,2.278-8.692a2.344,2.344,0,0,1,1.167-1.508,2.634,2.634,0,0,1,1.826-.29,2.615,2.615,0,0,1,2.151,2.588V3340a1.5,1.5,0,0,1-1.5,1.5Zm-.969-16.234a.754.754,0,0,1,.6.761V3340a.325.325,0,0,0,.1.253.357.357,0,0,0,.264.1.356.356,0,0,0,.357-.357v-13.973a1.432,1.432,0,0,0-.342-.957,1.448,1.448,0,0,0-.878-.507,1.5,1.5,0,0,0-1.055.163,1.209,1.209,0,0,0-.62.8l-2.646,10.1a.727.727,0,0,1-.739.58.737.737,0,0,1-.736-.569l-2.648-10.105a1.215,1.215,0,0,0-.623-.8,1.5,1.5,0,0,0-1.048-.163,1.473,1.473,0,0,0-1.224,1.465V3340a.356.356,0,0,0,.357.357.365.365,0,0,0,.272-.112.319.319,0,0,0,.1-.245v-13.973a.765.765,0,0,1,1.513-.177l2.635,10.076a1.23,1.23,0,0,0,.511.718,1.561,1.561,0,0,0,1.788,0,1.235,1.235,0,0,0,.514-.721l2.635-10.066a.776.776,0,0,1,.341-.507A.743.743,0,0,1,983.576,3325.267Zm-4.583,10.076,0,.007Zm-5.52-9.215,0,.01Z" transform="translate(-971.201 -3323.387)" fill="#fff"/>
      </g>
      <g id="Group_1598" data-name="Group 1598" transform="translate(19.815 0.023)">
        <path id="Path_6869" data-name="Path 6869" d="M1063.606,3340.865a.9.9,0,0,1,.657.271.9.9,0,0,1,0,1.314.9.9,0,0,1-.657.271H1056.8a.928.928,0,0,1-.928-.929v-15.116a.928.928,0,0,1,.928-.928h6.805a.894.894,0,0,1,.657.272.9.9,0,0,1,0,1.313.9.9,0,0,1-.657.271h-5.865v5.7h5.106a.928.928,0,0,1,.94.94.893.893,0,0,1-.272.656.909.909,0,0,1-.668.272h-5.106v5.7Z" transform="translate(-1055.3 -3325.177)" fill="#fff"/>
        <path id="Path_6870" data-name="Path 6870" d="M1061.8,3341.49H1055a1.5,1.5,0,0,1-1.5-1.5v-15.116a1.5,1.5,0,0,1,1.5-1.5h6.805a1.471,1.471,0,0,1,1.061.439,1.475,1.475,0,0,1-.008,2.13,1.462,1.462,0,0,1-1.053.431h-5.294v4.552h4.535a1.506,1.506,0,1,1,0,3.011h-4.535v4.552h5.294a1.471,1.471,0,0,1,1.061.439,1.475,1.475,0,0,1-.008,2.13A1.462,1.462,0,0,1,1061.8,3341.49ZM1055,3324.517a.356.356,0,0,0-.357.357v15.116a.356.356,0,0,0,.357.357h6.805a.325.325,0,0,0,.253-.1.319.319,0,0,0,.116-.253.309.309,0,0,0-.107-.244.334.334,0,0,0-.261-.113h-6.437v-6.839h5.678a.337.337,0,0,0,.264-.1.323.323,0,0,0,.1-.252.356.356,0,0,0-.368-.368h-5.678v-6.839h6.437a.324.324,0,0,0,.253-.1.318.318,0,0,0,.116-.252.309.309,0,0,0-.107-.244.333.333,0,0,0-.261-.113Z" transform="translate(-1053.498 -3323.374)" fill="#fff"/>
      </g>
      <g id="Group_1599" data-name="Group 1599" transform="translate(33.006 0.023)">
        <path id="Path_6871" data-name="Path 6871" d="M1117.055,3341.793a.929.929,0,1,1-1.857,0V3327.6h-3.612a.928.928,0,1,1,0-1.857h9.07a.907.907,0,0,1,.668.272.929.929,0,0,1,0,1.313.908.908,0,0,1-.668.271h-3.6Z" transform="translate(-1110.085 -3325.177)" fill="#fff"/>
        <path id="Path_6872" data-name="Path 6872" d="M1114.324,3341.49a1.5,1.5,0,0,1-1.5-1.5v-13.616h-3.041a1.5,1.5,0,1,1,0-3h9.07a1.5,1.5,0,1,1,0,3h-3.029v13.616a1.5,1.5,0,0,1-1.5,1.5Zm-4.541-16.973a.357.357,0,0,0,0,.714h4.184v14.759a.357.357,0,1,0,.714,0v-14.759h4.172a.337.337,0,0,0,.264-.1.357.357,0,0,0,0-.5.337.337,0,0,0-.264-.1Z" transform="translate(-1108.283 -3323.374)" fill="#fff"/>
      </g>
      <g id="Group_1600" data-name="Group 1600" transform="translate(48.077 0)">
        <path id="Path_6873" data-name="Path 6873" d="M1176.161,3337.192l-1.065,4.733a.934.934,0,0,1-1.823-.407l3.08-13.656a2.658,2.658,0,0,1,1.166-1.789,2.917,2.917,0,0,1,1.585-.419,2.862,2.862,0,0,1,1.585.43,2.724,2.724,0,0,1,1.166,1.778l3.068,13.656a.863.863,0,0,1-.124.7.923.923,0,0,1-1.28.283.866.866,0,0,1-.408-.578l-1.065-4.733Zm5.48-1.812-1.608-7.111a.871.871,0,0,0-.351-.611,1.038,1.038,0,0,0-.578-.136,1.1,1.1,0,0,0-.589.125.9.9,0,0,0-.351.623l-1.6,7.111Z" transform="translate(-1172.68 -3325.083)" fill="#fff"/>
        <path id="Path_6874" data-name="Path 6874" d="M1182.218,3341.418a1.5,1.5,0,0,1-.8-.232,1.442,1.442,0,0,1-.665-.944l-.962-4.28h-4.974l-.964,4.287a1.506,1.506,0,0,1-2.94-.652l3.081-13.662a3.216,3.216,0,0,1,1.422-2.149,3.489,3.489,0,0,1,1.887-.505,3.442,3.442,0,0,1,1.895.521,3.289,3.289,0,0,1,1.414,2.132l3.069,13.657a1.43,1.43,0,0,1-.2,1.14,1.5,1.5,0,0,1-.921.65l-.016,0A1.565,1.565,0,0,1,1182.218,3341.418Zm-4.914-16.995a2.337,2.337,0,0,0-1.282.332,2.1,2.1,0,0,0-.912,1.427l-3.08,13.658a.357.357,0,0,0,.286.427.361.361,0,0,0,.424-.28l1.162-5.17h6.8l1.165,5.179a.3.3,0,0,0,.151.217.353.353,0,0,0,.274.053.348.348,0,0,0,.223-.159.3.3,0,0,0,.05-.258l-3.071-13.665a2.157,2.157,0,0,0-.919-1.423A2.29,2.29,0,0,0,1177.3,3324.423Zm3.252,9.727h-6.5l1.753-7.808a1.437,1.437,0,0,1,.608-.984,1.639,1.639,0,0,1,.89-.21,1.578,1.578,0,0,1,.885.226,1.419,1.419,0,0,1,.6.981Zm-5.074-1.143h3.643l-1.45-6.413a.5.5,0,0,0-.093-.251l-.017-.011a.524.524,0,0,0-.261-.041.724.724,0,0,0-.282.035l-.006,0a.663.663,0,0,0-.093.257Z" transform="translate(-1170.879 -3323.28)" fill="#fff"/>
      </g>
      <g id="Group_1601" data-name="Group 1601" transform="translate(63.975 0.001)">
        <path id="Path_6875" data-name="Path 6875" d="M1239.423,3326.086a.936.936,0,0,1,1.7.294l3.068,13.656a.9.9,0,0,0,.351.623,1.1,1.1,0,0,0,.589.125,1.039,1.039,0,0,0,.578-.136.873.873,0,0,0,.351-.612l3.08-13.656a.866.866,0,0,1,.408-.577.922.922,0,0,1,1.28.283.861.861,0,0,1,.125.7l-3.069,13.656a2.72,2.72,0,0,1-1.166,1.778,2.861,2.861,0,0,1-1.585.43,2.918,2.918,0,0,1-1.585-.419,2.656,2.656,0,0,1-1.166-1.789l-3.08-13.656A.922.922,0,0,1,1239.423,3326.086Z" transform="translate(-1238.706 -3325.085)" fill="#fff"/>
        <path id="Path_6876" data-name="Path 6876" d="M1243.331,3341.421a3.493,3.493,0,0,1-1.889-.506,3.217,3.217,0,0,1-1.421-2.15l-3.079-13.653a1.5,1.5,0,0,1,.2-1.129l.005-.008a1.507,1.507,0,0,1,2.735.469l3.071,13.665a.682.682,0,0,0,.094.262l.01.006h0a.778.778,0,0,0,.278.033.543.543,0,0,0,.261-.04l.02-.013h0a.5.5,0,0,0,.088-.236l3.083-13.669a1.437,1.437,0,0,1,.664-.937,1.5,1.5,0,0,1,1.122-.2l.016,0a1.5,1.5,0,0,1,.923.654,1.432,1.432,0,0,1,.2,1.146l-3.067,13.646a3.289,3.289,0,0,1-1.414,2.133A3.438,3.438,0,0,1,1243.331,3341.421Zm-5.224-16.832a.354.354,0,0,0-.048.278l3.078,13.649a2.1,2.1,0,0,0,.91,1.429,2.345,2.345,0,0,0,1.284.333,2.288,2.288,0,0,0,1.276-.339,2.159,2.159,0,0,0,.918-1.423l3.068-13.655a.3.3,0,0,0-.045-.264.352.352,0,0,0-.5-.111.3.3,0,0,0-.15.211l-3.081,13.663a1.4,1.4,0,0,1-.6.968,1.576,1.576,0,0,1-.885.226,1.633,1.633,0,0,1-.89-.21,1.44,1.44,0,0,1-.609-.989l-3.068-13.65a.343.343,0,0,0-.159-.222.367.367,0,0,0-.5.107Z" transform="translate(-1236.906 -3323.284)" fill="#fff"/>
      </g>
      <g id="Group_1602" data-name="Group 1602" transform="translate(80.834 0.023)">
        <path id="Path_6877" data-name="Path 6877" d="M1317.032,3340.865a.9.9,0,0,1,.657.271.9.9,0,0,1,0,1.314.9.9,0,0,1-.657.271h-6.805a.927.927,0,0,1-.928-.929v-15.116a.927.927,0,0,1,.928-.928h6.805a.893.893,0,0,1,.657.272.9.9,0,0,1,0,1.313.894.894,0,0,1-.657.271h-5.866v5.7h5.107a.928.928,0,0,1,.94.94.893.893,0,0,1-.272.656.908.908,0,0,1-.668.272h-5.107v5.7Z" transform="translate(-1308.726 -3325.177)" fill="#fff"/>
        <path id="Path_6878" data-name="Path 6878" d="M1315.229,3341.49h-6.805a1.5,1.5,0,0,1-1.5-1.5v-15.116a1.5,1.5,0,0,1,1.5-1.5h6.805a1.47,1.47,0,0,1,1.061.439,1.475,1.475,0,0,1-.008,2.13,1.462,1.462,0,0,1-1.053.431h-5.294v4.552h4.535a1.506,1.506,0,1,1,0,3.011h-4.535v4.552h5.294a1.47,1.47,0,0,1,1.061.439,1.475,1.475,0,0,1-.008,2.13A1.462,1.462,0,0,1,1315.229,3341.49Zm-6.805-16.973a.356.356,0,0,0-.357.357v15.116a.356.356,0,0,0,.357.357h6.805a.323.323,0,0,0,.252-.1.318.318,0,0,0,.116-.253.309.309,0,0,0-.107-.244.334.334,0,0,0-.261-.113h-6.437v-6.839h5.678a.338.338,0,0,0,.264-.1.322.322,0,0,0,.1-.252.357.357,0,0,0-.368-.368h-5.678v-6.839h6.437a.322.322,0,0,0,.252-.1.316.316,0,0,0,.116-.252.309.309,0,0,0-.107-.244.333.333,0,0,0-.261-.113Z" transform="translate(-1306.924 -3323.374)" fill="#fff"/>
      </g>
      <g id="Group_1603" data-name="Group 1603" transform="translate(95.044 0.023)">
        <path id="Path_6879" data-name="Path 6879" d="M1370.183,3341.793a.9.9,0,0,1-.272.657.91.91,0,0,1-.668.271.928.928,0,0,1-.929-.929v-15.116a.928.928,0,0,1,.929-.928h3.974a4.71,4.71,0,0,1,1.574,9.149,11.181,11.181,0,0,1,1.925,2.3,12.463,12.463,0,0,1,1.506,4.439.939.939,0,0,1-.159.69.922.922,0,0,1-.611.385.94.94,0,0,1-.691-.159.92.92,0,0,1-.385-.612,10.637,10.637,0,0,0-1.245-3.771,11.887,11.887,0,0,0-2.9-3h-2.05Zm0-14.177v5.684h3.034a2.842,2.842,0,1,0,0-5.684Z" transform="translate(-1367.744 -3325.177)" fill="#fff"/>
        <path id="Path_6880" data-name="Path 6880" d="M1367.442,3341.49a1.5,1.5,0,0,1-1.5-1.5v-15.116a1.5,1.5,0,0,1,1.5-1.5h3.974a5.289,5.289,0,0,1,2.568,9.9,10.974,10.974,0,0,1,1.419,1.82,13.07,13.07,0,0,1,1.582,4.64,1.525,1.525,0,0,1-.249,1.108,1.506,1.506,0,0,1-.985.627,1.525,1.525,0,0,1-1.111-.249,1.505,1.505,0,0,1-.627-.985,10.159,10.159,0,0,0-1.169-3.57,11.107,11.107,0,0,0-2.61-2.729h-1.28v6.052a1.5,1.5,0,0,1-1.511,1.5Zm.368-8.7h2.817l.155.12a12.479,12.479,0,0,1,3.036,3.155,11.237,11.237,0,0,1,1.321,3.972.35.35,0,0,0,.153.241.362.362,0,0,0,.273.059.345.345,0,0,0,.232-.152.361.361,0,0,0,.058-.273,11.934,11.934,0,0,0-1.427-4.223,10.653,10.653,0,0,0-1.829-2.182l-.691-.646.893-.312a4.139,4.139,0,0,0-1.386-8.038h-3.974a.357.357,0,0,0-.357.357v15.116a.356.356,0,0,0,.357.357.338.338,0,0,0,.264-.1.326.326,0,0,0,.1-.253Zm3.606-.725h-3.606v-6.827h3.606a3.414,3.414,0,1,1,0,6.827Zm-2.463-1.143h2.463a2.27,2.27,0,1,0,0-4.541h-2.463Z" transform="translate(-1365.942 -3323.374)" fill="#fff"/>
      </g>
      <g id="Group_1604" data-name="Group 1604" transform="translate(110.488 0.023)">
        <path id="Path_6881" data-name="Path 6881" d="M1442.368,3331.115a.9.9,0,0,1-.657.272.933.933,0,0,1-.668-.272.894.894,0,0,1-.272-.656,2.592,2.592,0,0,0-.906-1.982,3.51,3.51,0,0,0-4.631,0,2.591,2.591,0,0,0-.906,1.982,2.309,2.309,0,0,0,1.065,2.094,8.38,8.38,0,0,0,2.355.77,10.048,10.048,0,0,1,3.363,1.178,4.009,4.009,0,0,1,1.529,3.51,4.379,4.379,0,0,1-1.517,3.363,5.394,5.394,0,0,1-7.134,0,4.365,4.365,0,0,1-1.528-3.363.927.927,0,0,1,.928-.928.909.909,0,0,1,.668.271.9.9,0,0,1,.272.657,2.593,2.593,0,0,0,.906,1.982,3.512,3.512,0,0,0,4.631,0,2.593,2.593,0,0,0,.906-1.982,2.311,2.311,0,0,0-1.065-2.095,8.415,8.415,0,0,0-2.355-.77,10.044,10.044,0,0,1-3.363-1.178,4.007,4.007,0,0,1-1.528-3.51,4.366,4.366,0,0,1,1.528-3.363,5.4,5.4,0,0,1,7.134,0,4.38,4.38,0,0,1,1.517,3.363A.894.894,0,0,1,1442.368,3331.115Z" transform="translate(-1431.889 -3325.177)" fill="#fff"/>
        <path id="Path_6882" data-name="Path 6882" d="M1435.753,3341.49a5.7,5.7,0,0,1-3.951-1.5,4.932,4.932,0,0,1-1.716-3.786,1.506,1.506,0,0,1,3.011,0,2.025,2.025,0,0,0,.719,1.559,2.94,2.94,0,0,0,3.86,0,2.027,2.027,0,0,0,.72-1.56,1.739,1.739,0,0,0-.8-1.613,7.674,7.674,0,0,0-2.169-.693,10.407,10.407,0,0,1-3.57-1.269,4.562,4.562,0,0,1-1.771-3.978,4.933,4.933,0,0,1,1.717-3.787,5.965,5.965,0,0,1,7.9,0,4.951,4.951,0,0,1,1.706,3.787,1.5,1.5,0,0,1-1.5,1.5,1.51,1.51,0,0,1-1.064-.431,1.477,1.477,0,0,1-.447-1.069,2.027,2.027,0,0,0-.72-1.559,2.939,2.939,0,0,0-3.86,0,2.028,2.028,0,0,0-.72,1.56,1.738,1.738,0,0,0,.8,1.613,7.665,7.665,0,0,0,2.17.694,10.423,10.423,0,0,1,3.57,1.269,4.561,4.561,0,0,1,1.771,3.978,4.948,4.948,0,0,1-1.7,3.785A5.727,5.727,0,0,1,1435.753,3341.49Zm-4.167-5.639a.356.356,0,0,0-.357.357,3.786,3.786,0,0,0,1.34,2.939,4.823,4.823,0,0,0,6.367,0,3.8,3.8,0,0,0,1.329-2.938,3.447,3.447,0,0,0-1.288-3.044,9.246,9.246,0,0,0-3.153-1.085,8.778,8.778,0,0,1-2.533-.842,2.9,2.9,0,0,1-1.337-2.582,3.153,3.153,0,0,1,1.092-2.4,4.082,4.082,0,0,1,5.4,0,3.151,3.151,0,0,1,1.091,2.4.324.324,0,0,0,.1.253.356.356,0,0,0,.264.1.357.357,0,0,0,.357-.357,3.8,3.8,0,0,0-1.331-2.94,4.824,4.824,0,0,0-6.364,0,3.786,3.786,0,0,0-1.341,2.94,3.448,3.448,0,0,0,1.288,3.045,9.227,9.227,0,0,0,3.153,1.085,8.794,8.794,0,0,1,2.533.841,2.9,2.9,0,0,1,1.337,2.582,3.152,3.152,0,0,1-1.092,2.4,4.082,4.082,0,0,1-5.4,0,3.151,3.151,0,0,1-1.091-2.4.325.325,0,0,0-.1-.253A.338.338,0,0,0,1431.586,3335.851Z" transform="translate(-1430.086 -3323.374)" fill="#fff"/>
      </g>
      <g id="Group_1605" data-name="Group 1605" transform="translate(126.442 0.023)">
        <path id="Path_6883" data-name="Path 6883" d="M1506.454,3340.865a.9.9,0,0,1,.657.271.9.9,0,0,1,0,1.314.9.9,0,0,1-.657.271h-6.8a.927.927,0,0,1-.929-.929v-15.116a.928.928,0,0,1,.929-.928h6.8a.894.894,0,0,1,.657.272.9.9,0,0,1,0,1.313.9.9,0,0,1-.657.271h-5.865v5.7h5.106a.928.928,0,0,1,.94.94.893.893,0,0,1-.272.656.909.909,0,0,1-.668.272h-5.106v5.7Z" transform="translate(-1498.148 -3325.177)" fill="#fff"/>
        <path id="Path_6884" data-name="Path 6884" d="M1504.651,3341.49h-6.8a1.5,1.5,0,0,1-1.5-1.5v-15.116a1.5,1.5,0,0,1,1.5-1.5h6.8a1.471,1.471,0,0,1,1.061.439,1.475,1.475,0,0,1-.008,2.13,1.463,1.463,0,0,1-1.053.431h-5.294v4.552h4.535a1.506,1.506,0,1,1,0,3.011h-4.535v4.552h5.294a1.471,1.471,0,0,1,1.061.439,1.475,1.475,0,0,1-.008,2.13A1.463,1.463,0,0,1,1504.651,3341.49Zm-6.8-16.973a.356.356,0,0,0-.357.357v15.116a.356.356,0,0,0,.357.357h6.8a.325.325,0,0,0,.253-.1.319.319,0,0,0,.116-.253.309.309,0,0,0-.108-.244.334.334,0,0,0-.261-.113h-6.437v-6.839h5.678a.337.337,0,0,0,.264-.1.323.323,0,0,0,.1-.252.357.357,0,0,0-.368-.368h-5.678v-6.839h6.437a.324.324,0,0,0,.253-.1.318.318,0,0,0,.116-.252.31.31,0,0,0-.108-.244.333.333,0,0,0-.261-.113Z" transform="translate(-1496.346 -3323.374)" fill="#fff"/>
      </g>
      <g id="Group_1606" data-name="Group 1606" transform="translate(150.242 0.023)">
        <path id="Path_6885" data-name="Path 6885" d="M1599.438,3341.793a.9.9,0,0,1-.272.657.911.911,0,0,1-.668.271.928.928,0,0,1-.928-.929v-15.116a.928.928,0,0,1,.928-.928h3.408a4.71,4.71,0,0,1,0,9.421h-2.468Zm0-14.188v5.7h2.468a2.848,2.848,0,0,0,0-5.7Z" transform="translate(-1596.997 -3325.177)" fill="#9097a0"/>
        <path id="Path_6886" data-name="Path 6886" d="M1596.7,3341.49a1.5,1.5,0,0,1-1.5-1.5v-15.116a1.5,1.5,0,0,1,1.5-1.5h3.408a5.282,5.282,0,0,1,0,10.564h-1.9v6.052a1.5,1.5,0,0,1-1.511,1.5Zm0-16.973a.356.356,0,0,0-.357.357v15.116a.356.356,0,0,0,.357.357.337.337,0,0,0,.264-.1.325.325,0,0,0,.1-.253v-7.2h3.04a4.139,4.139,0,1,0,0-8.278Zm3.408,7.552h-3.04v-6.839h3.04a3.419,3.419,0,0,1,0,6.839Zm-1.9-1.143h1.9a2.276,2.276,0,0,0,0-4.552h-1.9Z" transform="translate(-1595.195 -3323.374)" fill="#9097a0"/>
      </g>
      <g id="Group_1607" data-name="Group 1607" transform="translate(164.463 0.023)">
        <path id="Path_6887" data-name="Path 6887" d="M1665.126,3340.865a.929.929,0,1,1,0,1.857h-7.564a.927.927,0,0,1-.928-.929v-15.116a.928.928,0,0,1,.928-.928.907.907,0,0,1,.668.272.893.893,0,0,1,.272.656v14.188Z" transform="translate(-1656.063 -3325.177)" fill="#9097a0"/>
        <path id="Path_6888" data-name="Path 6888" d="M1663.324,3341.49h-7.564a1.5,1.5,0,0,1-1.5-1.5v-15.116a1.506,1.506,0,0,1,3.012,0v13.616h6.052a1.5,1.5,0,0,1,0,3Zm-7.564-16.973a.357.357,0,0,0-.357.357v15.116a.356.356,0,0,0,.357.357h7.564a.357.357,0,1,0,0-.714h-7.2v-14.76a.324.324,0,0,0-.1-.252A.336.336,0,0,0,1655.76,3324.517Z" transform="translate(-1654.26 -3323.374)" fill="#9097a0"/>
      </g>
      <g id="Group_1608" data-name="Group 1608" transform="translate(178.945 0.023)">
        <path id="Path_6889" data-name="Path 6889" d="M1725.092,3326.677a.894.894,0,0,1,.272-.656.932.932,0,0,1,.668-.272.928.928,0,0,1,.929.928v10.961a5.09,5.09,0,0,1-10.179,0v-10.961a.927.927,0,0,1,.929-.928.907.907,0,0,1,.668.272.893.893,0,0,1,.272.656v10.961a3.221,3.221,0,1,0,6.443,0Z" transform="translate(-1716.21 -3325.177)" fill="#9097a0"/>
        <path id="Path_6890" data-name="Path 6890" d="M1720.074,3341.49a5.675,5.675,0,0,1-5.667-5.656v-10.961a1.506,1.506,0,0,1,3.012,0v10.961a2.65,2.65,0,1,0,5.3,0v-10.961a1.471,1.471,0,0,1,.439-1.061,1.518,1.518,0,0,1,1.073-.439,1.5,1.5,0,0,1,1.5,1.5v10.961a5.675,5.675,0,0,1-5.656,5.656Zm-4.167-16.973a.356.356,0,0,0-.357.357v10.961a4.518,4.518,0,0,0,9.036,0v-10.961a.356.356,0,0,0-.357-.357.363.363,0,0,0-.272.113.317.317,0,0,0-.1.244v10.961a3.8,3.8,0,0,1-3.787,3.8,3.818,3.818,0,0,1-3.8-3.8v-10.961a.324.324,0,0,0-.1-.252A.337.337,0,0,0,1715.907,3324.517Z" transform="translate(-1714.407 -3323.374)" fill="#9097a0"/>
      </g>
      <g id="Group_1609" data-name="Group 1609" transform="translate(194.899 0.023)">
        <path id="Path_6891" data-name="Path 6891" d="M1792.949,3331.115a.9.9,0,0,1-.657.272.934.934,0,0,1-.668-.272.9.9,0,0,1-.272-.656,2.591,2.591,0,0,0-.906-1.982,3.51,3.51,0,0,0-4.631,0,2.59,2.59,0,0,0-.906,1.982,2.309,2.309,0,0,0,1.064,2.094,8.379,8.379,0,0,0,2.355.77,10.042,10.042,0,0,1,3.363,1.178,4.008,4.008,0,0,1,1.529,3.51,4.378,4.378,0,0,1-1.517,3.363,5.394,5.394,0,0,1-7.133,0,4.364,4.364,0,0,1-1.529-3.363.927.927,0,0,1,.928-.928.909.909,0,0,1,.668.271.9.9,0,0,1,.272.657,2.592,2.592,0,0,0,.906,1.982,3.511,3.511,0,0,0,4.631,0,2.593,2.593,0,0,0,.906-1.982,2.311,2.311,0,0,0-1.064-2.095,8.419,8.419,0,0,0-2.355-.77,10.039,10.039,0,0,1-3.363-1.178,4.007,4.007,0,0,1-1.529-3.51,4.365,4.365,0,0,1,1.529-3.363,5.4,5.4,0,0,1,7.133,0,4.379,4.379,0,0,1,1.517,3.363A.893.893,0,0,1,1792.949,3331.115Z" transform="translate(-1782.469 -3325.177)" fill="#9097a0"/>
        <path id="Path_6892" data-name="Path 6892" d="M1786.334,3341.49a5.7,5.7,0,0,1-3.951-1.5,4.931,4.931,0,0,1-1.716-3.786,1.506,1.506,0,0,1,3.012,0,2.025,2.025,0,0,0,.719,1.559,2.94,2.94,0,0,0,3.86,0,2.026,2.026,0,0,0,.72-1.56,1.739,1.739,0,0,0-.8-1.613,7.671,7.671,0,0,0-2.169-.693,10.4,10.4,0,0,1-3.57-1.269,4.561,4.561,0,0,1-1.771-3.978,4.933,4.933,0,0,1,1.717-3.787,5.966,5.966,0,0,1,7.9,0,4.951,4.951,0,0,1,1.706,3.787,1.5,1.5,0,0,1-1.5,1.5,1.51,1.51,0,0,1-1.064-.431,1.477,1.477,0,0,1-.448-1.069,2.026,2.026,0,0,0-.719-1.559,2.939,2.939,0,0,0-3.859,0,2.026,2.026,0,0,0-.72,1.56,1.739,1.739,0,0,0,.8,1.613,7.662,7.662,0,0,0,2.17.694,10.425,10.425,0,0,1,3.57,1.269,4.562,4.562,0,0,1,1.771,3.978,4.948,4.948,0,0,1-1.7,3.785A5.728,5.728,0,0,1,1786.334,3341.49Zm-4.167-5.639a.357.357,0,0,0-.357.357,3.785,3.785,0,0,0,1.34,2.939,4.823,4.823,0,0,0,6.367,0,3.8,3.8,0,0,0,1.328-2.938,3.447,3.447,0,0,0-1.288-3.044,9.243,9.243,0,0,0-3.153-1.085,8.78,8.78,0,0,1-2.533-.842,2.9,2.9,0,0,1-1.337-2.582,3.152,3.152,0,0,1,1.092-2.4,4.082,4.082,0,0,1,5.4,0,3.151,3.151,0,0,1,1.091,2.4.325.325,0,0,0,.1.253.357.357,0,0,0,.264.1.356.356,0,0,0,.357-.357,3.8,3.8,0,0,0-1.331-2.94,4.824,4.824,0,0,0-6.364,0,3.786,3.786,0,0,0-1.341,2.94,3.447,3.447,0,0,0,1.288,3.045,9.223,9.223,0,0,0,3.153,1.085,8.8,8.8,0,0,1,2.533.841,2.9,2.9,0,0,1,1.337,2.582,3.152,3.152,0,0,1-1.092,2.4,4.081,4.081,0,0,1-5.4,0,3.151,3.151,0,0,1-1.091-2.4.325.325,0,0,0-.1-.253A.338.338,0,0,0,1782.167,3335.851Z" transform="translate(-1780.667 -3323.374)" fill="#9097a0"/>
      </g>
    </g>
    <g id="Group_1611" data-name="Group 1611" transform="translate(184 24)">
      <path id="Path_6893" data-name="Path 6893" d="M550.144,3294.749l-7.642.007,18.93-32.04a2.685,2.685,0,0,1,3.675-.947l2.15,1.268a2.685,2.685,0,0,1,.949,3.676l-15.752,26.715A2.685,2.685,0,0,1,550.144,3294.749Z" transform="translate(-542.502 -3261.39)" fill="#fff"/>
      <path id="Path_6894" data-name="Path 6894" d="M622.514,3294.745l-7.611-.009,18.9-32.019a2.685,2.685,0,0,1,3.675-.948l2.149,1.268a2.684,2.684,0,0,1,.949,3.676l-15.75,26.711A2.684,2.684,0,0,1,622.514,3294.745Z" transform="translate(-597.471 -3261.391)" fill="#fff"/>
      <path id="Path_6895" data-name="Path 6895" d="M694.8,3294.717l-7.611-.009,18.9-32.018a2.684,2.684,0,0,1,3.675-.948l2.149,1.268a2.685,2.685,0,0,1,.949,3.676l-15.75,26.711A2.684,2.684,0,0,1,694.8,3294.717Z" transform="translate(-652.354 -3261.369)" fill="#9097a0"/>
      <path id="Path_6896" data-name="Path 6896" d="M797.553,3283.016l-8.022.4,9.9-16.755a2.624,2.624,0,0,1,3.591-.925l2.256,1.33a2.624,2.624,0,0,1,.927,3.592l-6.523,11.067A2.625,2.625,0,0,1,797.553,3283.016Z" transform="translate(-730.053 -3264.41)" fill="#fff"/>
    </g>
  </g>
</svg>
