   <svg
                        xmlns="http://www.w3.org/2000/svg"
                        width="40.374"
                        height="42.54"
                        viewBox="0 0 40.374 42.54"
                      >
                        <path
                          id="Path_6295"
                          data-name="Path 6295"
                          d="M169.655,45.279c.343-5.862-.995-10.731-3.951-14.217-3.1-3.654-7.921-5.666-13.617-5.666-5.619,0-10.43,2.024-13.547,5.7-2.967,3.5-4.317,8.358-3.985,14.185a7.458,7.458,0,0,0,1.536,12.379c.16.072.328.124.493.182,2.1,4.747,7.094,8.035,13.471,8.838a1.976,1.976,0,0,0,1.837,1.252h2.5a1.978,1.978,0,0,0,0-3.957h-2.5a1.973,1.973,0,0,0-1.774,1.114c-5.355-.709-9.613-3.3-11.675-7.042a1.411,1.411,0,0,0,.729-1.45l-1.32-11.059a1.416,1.416,0,0,0-1.012-1.227c-.133-4.842,1.038-8.843,3.472-11.714,2.669-3.148,6.851-4.882,11.807-4.882s9.162,1.721,11.812,4.846c2.424,2.861,3.585,6.876,3.44,11.751a1.415,1.415,0,0,0-1.01,1.226L165.041,56.6a1.306,1.306,0,0,0,1.389,1.554,6.256,6.256,0,0,0,1.693-.493,7.458,7.458,0,0,0,1.532-12.383Z"
                          transform="translate(-131.92 -25.395)"
                          fill="#6d1e9e"
                        />
                      </svg>