 <svg
                        id="Group_1276"
                        data-name="Group 1276"
                        xmlns="http://www.w3.org/2000/svg"
                        width="52.762"
                        height="43"
                        viewBox="0 0 52.762 43"
                      >
                        <g id="Group_1270" data-name="Group 1270">
                          <g
                            id="Group_1255"
                            data-name="Group 1255"
                            transform="translate(4.106)"
                          >
                            <g id="Group_1254" data-name="Group 1254">
                              <path
                                id="Path_6263"
                                data-name="Path 6263"
                                d="M135.921-104.531H97.614c-1.2,0-2.639-.172-2.639-1s1.435-1,2.639-1h38.306c1.2,0,2.639.174,2.639,1S137.124-104.531,135.921-104.531Z"
                                transform="translate(-94.975 106.529)"
                                fill="#6d1e9e"
                              />
                            </g>
                          </g>
                          <g
                            id="Group_1257"
                            data-name="Group 1257"
                            transform="translate(41.027 1.953)"
                          >
                            <g id="Group_1256" data-name="Group 1256">
                              <path
                                id="Path_6264"
                                data-name="Path 6264"
                                d="M122.059-105.1Z"
                                transform="translate(-122.059 105.096)"
                                fill="#6d1e9e"
                              />
                            </g>
                          </g>
                          <g
                            id="Group_1259"
                            data-name="Group 1259"
                            transform="translate(18.083 35.655)"
                          >
                            <g id="Group_1258" data-name="Group 1258">
                              <path
                                id="Path_6265"
                                data-name="Path 6265"
                                d="M121.336-80.374h-15.62a.49.49,0,0,0-.488.488v5.858a.49.49,0,0,0,.488.488h15.62a.484.484,0,0,0,.488-.488v-5.858A.484.484,0,0,0,121.336-80.374Zm-.488,5.858H106.2V-79.4h14.644Z"
                                transform="translate(-105.228 80.374)"
                                fill="#6d1e9e"
                                stroke="#6d1e9e"
                                strokeLinecap="round"
                                strokeLinejoin="round"
                                strokeWidth="0.75"
                              />
                            </g>
                          </g>
                          <g
                            id="Group_1261"
                            data-name="Group 1261"
                            transform="translate(0 29.287)"
                          >
                            <g id="Group_1260" data-name="Group 1260">
                              <path
                                id="Path_6266"
                                data-name="Path 6266"
                                d="M141.772-77.19H94.914a2.955,2.955,0,0,1-2.951-2.951v-3.906a1,1,0,0,1,1-1h30.8a.512.512,0,0,1,.4.189,6.876,6.876,0,0,0,.882.909.51.51,0,0,1,.146.566.51.51,0,0,1-.478.334H93.961v2.905a.954.954,0,0,0,.953.953h46.858a.953.953,0,0,0,.953-.953v-2.905h-8.059a.51.51,0,0,1-.479-.334.51.51,0,0,1,.146-.566,6.769,6.769,0,0,0,.881-.909.514.514,0,0,1,.4-.189h8.114a1,1,0,0,1,1,1v3.906A2.955,2.955,0,0,1,141.772-77.19Zm-48.81-6.832,0,.307a.511.511,0,0,1,.273-.307Zm50.487,0a.513.513,0,0,1,.254.252v-.252Zm.277,0h0Z"
                                transform="translate(-91.963 85.045)"
                                fill="#6d1e9e"
                              />
                            </g>
                          </g>
                          <g
                            id="Group_1263"
                            data-name="Group 1263"
                            transform="translate(0 0.001)"
                          >
                            <g id="Group_1262" data-name="Group 1262">
                              <path
                                id="Path_6267"
                                data-name="Path 6267"
                                d="M124.709-75.244H92.962a1,1,0,0,1-1-1v-27.332a2.955,2.955,0,0,1,2.951-2.951H99.8a1,1,0,0,1,1,1,1,1,0,0,1-1,1H94.914a.955.955,0,0,0-.953.954v26.335h29.8a.512.512,0,0,1,.4.189,6.876,6.876,0,0,0,.882.909.51.51,0,0,1,.146.566A.51.51,0,0,1,124.709-75.244ZM92.985-76.52v.275H93.3A.514.514,0,0,1,92.985-76.52Z"
                                transform="translate(-91.963 106.528)"
                                fill="#6d1e9e"
                              />
                            </g>
                          </g>
                          <g
                            id="Group_1265"
                            data-name="Group 1265"
                            transform="translate(42.192 0.001)"
                          >
                            <g id="Group_1264" data-name="Group 1264">
                              <path
                                id="Path_6268"
                                data-name="Path 6268"
                                d="M132.484-75.244h-9.06a.51.51,0,0,1-.479-.334.51.51,0,0,1,.146-.566,6.771,6.771,0,0,0,.881-.909.514.514,0,0,1,.4-.189h7.113v-26.335a.954.954,0,0,0-.953-.954h-4.88a1,1,0,0,1-1-1,1,1,0,0,1,1-1h4.88a2.955,2.955,0,0,1,2.953,2.951v27.332A1,1,0,0,1,132.484-75.244Zm-.277-1.022h.277v-.314A.522.522,0,0,1,132.207-76.266Z"
                                transform="translate(-122.913 106.528)"
                                fill="#6d1e9e"
                              />
                            </g>
                          </g>
                          <g
                            id="Group_1267"
                            data-name="Group 1267"
                            transform="translate(9.766 41.001)"
                          >
                            <g id="Group_1266" data-name="Group 1266">
                              <path
                                id="Path_6269"
                                data-name="Path 6269"
                                d="M131.364-74.454H100.126a1,1,0,0,1-1-1,1,1,0,0,1,1-1h31.238a1,1,0,0,1,1,1A1,1,0,0,1,131.364-74.454Z"
                                transform="translate(-99.127 76.452)"
                                fill="#6d1e9e"
                              />
                            </g>
                          </g>
                          <g
                            id="Group_1269"
                            data-name="Group 1269"
                            transform="translate(22.458 32.216)"
                          >
                            <g id="Group_1268" data-name="Group 1268">
                              <path
                                id="Path_6270"
                                data-name="Path 6270"
                                d="M115.293-80.9h-5.858a1,1,0,0,1-1-1,1,1,0,0,1,1-1h5.858a1,1,0,0,1,1,1A1,1,0,0,1,115.293-80.9Zm0-1.022Z"
                                transform="translate(-108.437 82.897)"
                                fill="#6d1e9e"
                              />
                            </g>
                          </g>
                        </g>
                        <g
                          id="Group_1273"
                          data-name="Group 1273"
                          transform="translate(29.248 16.356)"
                        >
                          <g id="Group_1272" data-name="Group 1272">
                            <g id="Group_1271" data-name="Group 1271">
                              <path
                                id="Path_6271"
                                data-name="Path 6271"
                                d="M121.789-94.531a8.484,8.484,0,0,0-8.476,8.476,8.4,8.4,0,0,0,1.458,4.743,8.172,8.172,0,0,0,.759.96,8.419,8.419,0,0,0,6.259,2.773,8.421,8.421,0,0,0,6.259-2.773,8.175,8.175,0,0,0,.759-.96,8.4,8.4,0,0,0,1.458-4.743A8.485,8.485,0,0,0,121.789-94.531Zm5.827,13.219a7.417,7.417,0,0,1-.932.96,7.47,7.47,0,0,1-4.9,1.814,7.467,7.467,0,0,1-4.9-1.814,7.418,7.418,0,0,1-.932-.96,7.484,7.484,0,0,1-1.689-4.743,7.522,7.522,0,0,1,7.516-7.516,7.523,7.523,0,0,1,7.516,7.516A7.492,7.492,0,0,1,127.616-81.312Z"
                                transform="translate(-113.313 94.531)"
                                fill="#6d1e9e"
                                stroke="#6d1e9e"
                                strokeLinecap="round"
                                strokeLinejoin="round"
                                strokeWidth="0.75"
                              />
                            </g>
                          </g>
                        </g>
                        <g
                          id="Group_1275"
                          data-name="Group 1275"
                          transform="translate(35.144 21.776)"
                        >
                          <g id="Group_1274" data-name="Group 1274">
                            <path
                              id="Path_6272"
                              data-name="Path 6272"
                              d="M121.677-88.6c0-.608-.5-1.026-1.36-1.026a2.024,2.024,0,0,0-1.7.751l-.694-.495a2.957,2.957,0,0,1,2.462-1.065c1.369,0,2.253.638,2.253,1.693,0,1.587-1.682,1.692-1.682,2.936H120C120-87.292,121.677-87.5,121.677-88.6Zm-1.806,4.345a.6.6,0,0,1,.618-.608.594.594,0,0,1,.608.608.6.6,0,0,1-.608.608A.6.6,0,0,1,119.87-84.251Z"
                              transform="translate(-117.678 90.6)"
                              fill="#6d1e9e"
                            />
                            <path
                              id="Path_6273"
                              data-name="Path 6273"
                              d="M120.553-83.427a.774.774,0,0,1-.788-.778.765.765,0,0,1,.788-.778.761.761,0,0,1,.778.778A.77.77,0,0,1,120.553-83.427Zm0-1.216a.428.428,0,0,0-.447.438.433.433,0,0,0,.447.438.428.428,0,0,0,.438-.438A.423.423,0,0,0,120.553-84.643Zm.637-.942H119.9v-.17a2.256,2.256,0,0,1,.991-1.761c.367-.324.683-.605.683-1.033,0-.528-.457-.856-1.19-.856a1.86,1.86,0,0,0-1.568.686l-.1.128-.971-.693.109-.14a3.134,3.134,0,0,1,2.6-1.13c1.472,0,2.424.731,2.424,1.864A2.259,2.259,0,0,1,121.9-86.9c-.38.342-.708.637-.708,1.145Zm-.942-.341h.611a1.989,1.989,0,0,1,.811-1.228,1.929,1.929,0,0,0,.862-1.538c0-.939-.8-1.523-2.083-1.523a2.867,2.867,0,0,0-2.213.863l.416.3a2.232,2.232,0,0,1,1.73-.691c.93,0,1.531.47,1.531,1.2a1.766,1.766,0,0,1-.8,1.288A2.071,2.071,0,0,0,120.247-85.926Z"
                              transform="translate(-117.743 90.555)"
                              fill="#6d1e9e"
                            />
                          </g>
                        </g>
                      </svg>