 <svg
                        id="Group_1385"
                        data-name="Group 1385"
                        xmlns="http://www.w3.org/2000/svg"
                        width="48.181"
                        height="47.276"
                        viewBox="0 0 48.181 47.276"
                      >
                        <g
                          id="Group_1384"
                          data-name="Group 1384"
                          transform="translate(0 0)"
                        >
                          <g id="Group_1382" data-name="Group 1382">
                            <g id="Group_1379" data-name="Group 1379">
                              <path
                                id="Path_6306"
                                data-name="Path 6306"
                                d="M1229.123,1024.233a10.557,10.557,0,1,0-10.557,10.557A10.57,10.57,0,0,0,1229.123,1024.233Zm-2.71,0a7.848,7.848,0,1,1-7.845-7.848A7.856,7.856,0,0,1,1226.412,1024.233Z"
                                transform="translate(-1208.008 -1013.676)"
                                fill="#6d1e9e"
                              />
                            </g>
                            <g
                              id="Group_1381"
                              data-name="Group 1381"
                              transform="translate(22.272 3.408)"
                            >
                              <g id="Group_1380" data-name="Group 1380">
                                <path
                                  id="Path_6307"
                                  data-name="Path 6307"
                                  d="M1708.3,1096.378a8.853,8.853,0,1,0-8.853,8.853A8.864,8.864,0,0,0,1708.3,1096.378Zm-2.74,0a6.112,6.112,0,1,1-6.112-6.113A6.12,6.12,0,0,1,1705.555,1096.378Z"
                                  transform="translate(-1690.589 -1087.525)"
                                  fill="#6d1e9e"
                                />
                              </g>
                            </g>
                          </g>
                          <g
                            id="Group_1383"
                            data-name="Group 1383"
                            transform="translate(0.213 22.472)"
                          >
                            <path
                              id="Path_6308"
                              data-name="Path 6308"
                              d="M1260.6,1507.62v9.426c0,1.387-1.072,1.955-2.273,1.261l-6.36-3.657v6.962a3.815,3.815,0,0,1-3.885,3.782h-28.329a3.989,3.989,0,0,1-4.081-3.782v-3.1a3.931,3.931,0,0,1-3.04-3.765v-10.234a4.162,4.162,0,0,1,4.138-3.926h31.311a3.937,3.937,0,0,1,3.886,3.926v5.491l6.36-3.648C1259.526,1505.666,1260.6,1506.233,1260.6,1507.62Z"
                              transform="translate(-1212.63 -1500.59)"
                              fill="#6d1e9e"
                            />
                          </g>
                        </g>
                      </svg>