<svg
                        xmlns="http://www.w3.org/2000/svg"
                        width="59.798"
                        height="34.912"
                        viewBox="0 0 59.798 34.912"
                      >
                        <g
                          id="Group_1390"
                          data-name="Group 1390"
                          transform="translate(-365.505 -271.033)"
                        >
                          <path
                            id="Path_6316"
                            data-name="Path 6316"
                            d="M370.127,308.383h0a4.048,4.048,0,0,1-4.422-3.636l-.181-1.856a4.048,4.048,0,0,1,3.636-4.422h0Z"
                            transform="translate(0 -11.368)"
                            fill="#6d1e9e"
                          />
                          <path
                            id="Path_6317"
                            data-name="Path 6317"
                            d="M459.719,308.133h0a4.048,4.048,0,0,0,4.422-3.636l.181-1.856a4.047,4.047,0,0,0-3.636-4.422h0Z"
                            transform="translate(-39.038 -11.265)"
                            fill="#6d1e9e"
                          />
                          <path
                            id="Path_6318"
                            data-name="Path 6318"
                            d="M413.237,276.63a37.872,37.872,0,0,1,4.612.284v-2.561a3.32,3.32,0,0,0-3.32-3.32h-2.583a3.32,3.32,0,0,0-3.32,3.32v2.561A37.856,37.856,0,0,1,413.237,276.63Z"
                            transform="translate(-17.867)"
                            fill="#6d1e9e"
                          />
                          <path
                            id="Path_6319"
                            data-name="Path 6319"
                            d="M421.12,285.724l-16.6-2.669a36.586,36.586,0,0,0-11.62,0l-16.6,2.669a3.25,3.25,0,0,0-2.7,3.685l1.482,17.323a4.69,4.69,0,0,0,4.639,4h7.393a9.212,9.212,0,0,0,3.807-.824l4.932-2.239a6.913,6.913,0,0,1,5.712,0l4.932,2.239a9.213,9.213,0,0,0,3.808.824H417.7a4.69,4.69,0,0,0,4.639-4l1.482-17.323A3.25,3.25,0,0,0,421.12,285.724Zm-26.329-.019-15.184,2.517a2.747,2.747,0,0,0-2.4,3.127l1.156,13.958a12.353,12.353,0,0,0,.818,2.6,3.825,3.825,0,0,1-2.036-2.842l-1.209-14.675a2.651,2.651,0,0,1,2.2-3.007l13.546-2.179a29.869,29.869,0,0,1,9.482,0l1.01.163A32.477,32.477,0,0,0,394.791,285.7Z"
                            transform="translate(-3.34 -4.789)"
                            fill="#6d1e9e"
                          />
                        </g>
                      </svg>