   <svg
                        xmlns="http://www.w3.org/2000/svg"
                        width="34.041"
                        height="41.686"
                        viewBox="0 0 34.041 41.686"
                      >
                        <g
                          id="Group_1241"
                          data-name="Group 1241"
                          transform="matrix(0.999, 0.035, -0.035, 0.999, 1.344, -0.279)"
                        >
                          <g
                            id="Group_1228"
                            data-name="Group 1228"
                            transform="translate(0 4)"
                          >
                            <path
                              id="Path_6214"
                              data-name="Path 6214"
                              d="M8.75,34.5H2.565A2.567,2.567,0,0,1,0,31.936V2.564A2.567,2.567,0,0,1,2.565,0H6.75a.75.75,0,0,1,0,1.5H2.565A1.066,1.066,0,0,0,1.5,2.564V31.936A1.066,1.066,0,0,0,2.565,33H8.75a.75.75,0,0,1,0,1.5Z"
                              fill="#6d1e9e"
                            />
                          </g>
                          <g
                            id="Group_1229"
                            data-name="Group 1229"
                            transform="translate(21 4)"
                          >
                            <path
                              id="Path_6215"
                              data-name="Path 6215"
                              d="M6.75,13.5A.75.75,0,0,1,6,12.75V2.564A1.065,1.065,0,0,0,4.936,1.5H.75A.75.75,0,0,1,.75,0H4.936A2.567,2.567,0,0,1,7.5,2.564V12.75A.75.75,0,0,1,6.75,13.5Z"
                              fill="#6d1e9e"
                            />
                          </g>
                          <g
                            id="Group_1230"
                            data-name="Group 1230"
                            transform="translate(8)"
                          >
                            <path
                              id="Path_6216"
                              data-name="Path 6216"
                              d="M11.75,6.5H.75A.75.75,0,0,1,0,5.75V2.39A2.393,2.393,0,0,1,2.39,0h7.721A2.392,2.392,0,0,1,12.5,2.39V5.75A.75.75,0,0,1,11.75,6.5ZM1.5,5H11V2.39a.89.89,0,0,0-.889-.89H2.39a.891.891,0,0,0-.89.89Z"
                              fill="#6d1e9e"
                            />
                          </g>
                          <g
                            id="Group_1231"
                            data-name="Group 1231"
                            transform="translate(7.663 20)"
                          >
                            <path
                              id="Path_6217"
                              data-name="Path 6217"
                              d="M11.75,1.5H.75A.75.75,0,0,1,.75,0h11a.75.75,0,0,1,0,1.5Z"
                              fill="#6d1e9e"
                            />
                          </g>
                          <g
                            id="Group_1232"
                            data-name="Group 1232"
                            transform="translate(7.163 12)"
                          >
                            <path
                              id="Path_6218"
                              data-name="Path 6218"
                              d="M12.75,1.5H.75A.75.75,0,1,1,.75,0h12a.75.75,0,0,1,0,1.5Z"
                              fill="#6d1e9e"
                            />
                          </g>
                          <g
                            id="Group_1233"
                            data-name="Group 1233"
                            transform="translate(9.663 24)"
                          >
                            <path
                              id="Path_6219"
                              data-name="Path 6219"
                              d="M7.75,1.5h-7A.75.75,0,0,1,.75,0h7a.75.75,0,0,1,0,1.5Z"
                              fill="#6d1e9e"
                            />
                          </g>
                          <g
                            id="Group_1234"
                            data-name="Group 1234"
                            transform="translate(8.663 16)"
                          >
                            <path
                              id="Path_6220"
                              data-name="Path 6220"
                              d="M9.75,1.5h-9A.75.75,0,0,1,.75,0h9a.75.75,0,0,1,0,1.5Z"
                              fill="#6d1e9e"
                            />
                          </g>
                          <g
                            id="Group_1240"
                            data-name="Group 1240"
                            transform="translate(10.927 19.046)"
                          >
                            <g
                              id="Group_1235"
                              data-name="Group 1235"
                              transform="translate(1.174)"
                            >
                              <path
                                id="Path_6221"
                                data-name="Path 6221"
                                d="M1.67,21.28a.749.749,0,0,1-.531-.221l-.92-.919a.748.748,0,0,1-.2-.685l.252-1.2a9.472,9.472,0,0,1,2.578-4.764L15.312,1.023a3.5,3.5,0,1,1,4.943,4.945L7.79,18.433a9.474,9.474,0,0,1-4.763,2.579l-1.2.253A.8.8,0,0,1,1.67,21.28Zm-.1-1.914.346.347.805-.17h0a7.968,7.968,0,0,0,4.011-2.17L19.2,4.907a2,2,0,0,0-2.823-2.823L3.907,14.55a7.971,7.971,0,0,0-2.171,4.01Z"
                                fill="#6d1e9e"
                              />
                            </g>
                            <g
                              id="Group_1236"
                              data-name="Group 1236"
                              transform="translate(15.568 1.503)"
                            >
                              <path
                                id="Path_6222"
                                data-name="Path 6222"
                                d="M4.634,5.383a.748.748,0,0,1-.53-.22L.22,1.28A.75.75,0,0,1,1.28.22L5.164,4.1a.751.751,0,0,1-.53,1.281Z"
                                fill="#6d1e9e"
                              />
                            </g>
                            <g
                              id="Group_1237"
                              data-name="Group 1237"
                              transform="translate(8.72 8.351)"
                            >
                              <path
                                id="Path_6223"
                                data-name="Path 6223"
                                d="M4.633,5.383a.747.747,0,0,1-.53-.219L.22,1.281A.75.75,0,0,1,1.28.22L5.164,4.1a.749.749,0,0,1-.531,1.28Z"
                                fill="#6d1e9e"
                              />
                            </g>
                            <g
                              id="Group_1238"
                              data-name="Group 1238"
                              transform="translate(14.794 5.75)"
                            >
                              <path
                                id="Path_6224"
                                data-name="Path 6224"
                                d="M.751,9.763A.75.75,0,0,1,.22,8.482L6.088,2.615a.654.654,0,0,0-.924-.925l-1.6,1.6A.75.75,0,0,1,2.5,2.232L4.1.63A2.154,2.154,0,0,1,7.149,3.676L1.281,9.543A.75.75,0,0,1,.751,9.763Z"
                                fill="#6d1e9e"
                              />
                            </g>
                            <g
                              id="Group_1239"
                              data-name="Group 1239"
                              transform="translate(0 19.319)"
                            >
                              <path
                                id="Path_6225"
                                data-name="Path 6225"
                                d="M.75,3.135a.75.75,0,0,1-.53-1.28L1.855.22a.75.75,0,0,1,1.06,1.061L1.281,2.915A.748.748,0,0,1,.75,3.135Z"
                                fill="#6d1e9e"
                              />
                            </g>
                          </g>
                        </g>
                      </svg>