  <svg
                        xmlns="http://www.w3.org/2000/svg"
                        width="50.017"
                        height="43.765"
                        viewBox="0 0 50.017 43.765"
                      >
                        <path
                          id="Path_6296"
                          data-name="Path 6296"
                          d="M315.169,320.28V328.9h8.408V320.28Zm16.816,0V328.9h8.408V320.28Zm19.36-11.642h-.9a1.31,1.31,0,0,0-1.426,1.274v.667H306.329v-.667a1.146,1.146,0,0,0-1.222-1.274h-.9a1.415,1.415,0,0,0-1.541,1.274V352.4h3.665V338.39h42.687V352.4h3.665V309.912A1.235,1.235,0,0,0,351.344,308.638ZM348.8,328.9h-8.408V337.1h-8.408V328.9h-8.408V337.1h-8.408V328.9H306.76V320.28h8.408v-8.408h8.408v8.408h8.408v-8.408h8.408v8.408H348.8Z"
                          transform="translate(-302.664 -308.638)"
                          fill="#6d1e9e"
                        />
                      </svg>