<svg
                        xmlns="http://www.w3.org/2000/svg"
                        width="40.219"
                        height="40.22"
                        viewBox="0 0 40.219 40.22"
                      >
                        <g
                          id="Group_1389"
                          data-name="Group 1389"
                          transform="translate(-405.999 -22.497)"
                        >
                          <path
                            id="Path_6313"
                            data-name="Path 6313"
                            d="M426.109,62.717a19.931,19.931,0,0,1-14.591-6.272.691.691,0,0,1,1-.951,18.561,18.561,0,0,0,13.588,5.841,18.72,18.72,0,1,0-16.231-9.38.691.691,0,0,1-1.2.691,20.112,20.112,0,1,1,17.429,10.071Z"
                            transform="translate(0 0)"
                            fill="#6d1e9e"
                          />
                          <path
                            id="Path_6314"
                            data-name="Path 6314"
                            d="M432.971,62.717c-6.233,0-11.3-9.022-11.3-20.11a30.035,30.035,0,0,1,3.125-13.936.691.691,0,0,1,1.218.654,28.627,28.627,0,0,0-2.961,13.282c0,10.327,4.451,18.728,9.921,18.728s9.922-8.4,9.922-18.728-4.451-18.728-9.922-18.728c-1.935,0-3.822,1.084-5.455,3.133a.691.691,0,0,1-1.081-.861c1.9-2.391,4.165-3.654,6.536-3.654,6.233,0,11.3,9.022,11.3,20.11S439.2,62.717,432.971,62.717Z"
                            transform="translate(-6.863 0)"
                            fill="#6d1e9e"
                          />
                          <path
                            id="Path_6315"
                            data-name="Path 6315"
                            d="M426.109,60.773c-11.089,0-20.11-5.071-20.11-11.3s9.021-11.3,20.11-11.3,20.11,5.071,20.11,11.3c0,2.459-1.35,4.787-3.9,6.731a.691.691,0,1,1-.837-1.1c2.2-1.674,3.359-3.621,3.359-5.632,0-5.471-8.4-9.921-18.728-9.921S407.381,44,407.381,49.469s8.4,9.922,18.728,9.922A30.216,30.216,0,0,0,438.022,57.1a.691.691,0,1,1,.558,1.264A31.171,31.171,0,0,1,426.109,60.773Z"
                            transform="translate(0 -6.863)"
                            fill="#6d1e9e"
                          />
                        </g>
                      </svg>