<svg
                        xmlns="http://www.w3.org/2000/svg"
                        width="48.506"
                        height="42.464"
                        viewBox="0 0 48.506 42.464"
                      >
                        <g
                          id="Group_1391"
                          data-name="Group 1391"
                          transform="translate(-20.515 -313.638)"
                        >
                          <path
                            id="Path_6320"
                            data-name="Path 6320"
                            d="M61.587,348.68a.8.8,0,0,1-.8-.8V327.226a.8.8,0,0,1,.657-.787c7.275-1.317,10.531-3.509,10.531-5.1,0-2.887-9.3-6.1-22.653-6.1A64.75,64.75,0,0,0,34.541,316.8a.8.8,0,0,1-.38-1.554,66.36,66.36,0,0,1,15.161-1.612c11.757,0,24.253,2.7,24.253,7.7,0,2.793-4.067,5.165-11.188,6.548v19.024c6.614-1.33,9.588-3.4,9.588-4.918a.8.8,0,0,1,1.6,0c0,2.877-4.318,5.309-11.846,6.672A.8.8,0,0,1,61.587,348.68Z"
                            transform="translate(-4.554)"
                            fill="#6d1e9e"
                          />
                          <path
                            id="Path_6321"
                            data-name="Path 6321"
                            d="M32.5,350.525a.811.811,0,0,1-.142-.012c-7.528-1.363-11.845-3.795-11.845-6.672a.8.8,0,0,1,1.6,0c0,1.518,2.973,3.588,9.587,4.918V329.735c-7.121-1.383-11.187-3.755-11.187-6.548,0-1.564,1.213-2.97,3.607-4.181a.8.8,0,1,1,.722,1.428c-1.759.89-2.729,1.868-2.729,2.754,0,1.588,3.256,3.78,10.53,5.1a.8.8,0,0,1,.658.787v20.654a.8.8,0,0,1-.8.8Z"
                            transform="translate(0 -1.845)"
                            fill="#6d1e9e"
                          />
                          <path
                            id="Path_6322"
                            data-name="Path 6322"
                            d="M63.041,348a.9.9,0,0,1-.143-.012,69.419,69.419,0,0,0-12.123-1.007,69.406,69.406,0,0,0-12.123,1.007.8.8,0,0,1-.285-1.575,71.136,71.136,0,0,1,12.408-1.031,71.139,71.139,0,0,1,12.408,1.031A.8.8,0,0,1,63.041,348Z"
                            transform="translate(-6.007 -11.09)"
                            fill="#6d1e9e"
                          />
                          <path
                            id="Path_6323"
                            data-name="Path 6323"
                            d="M93.407,346.5a.8.8,0,0,1-.8-.8V325.049a.8.8,0,0,1,1.6,0V345.7A.8.8,0,0,1,93.407,346.5Z"
                            transform="translate(-25.186 -3.707)"
                            fill="#6d1e9e"
                          />
                          <path
                            id="Path_6324"
                            data-name="Path 6324"
                            d="M21.315,346.5a.8.8,0,0,1-.8-.8V325.049a.8.8,0,0,1,1.6,0V345.7A.8.8,0,0,1,21.315,346.5Z"
                            transform="translate(0 -3.707)"
                            fill="#6d1e9e"
                          />
                          <path
                            id="Path_6325"
                            data-name="Path 6325"
                            d="M50.844,340.419a.789.789,0,0,1-.228-.033.8.8,0,0,1-.539-.995c1.1-3.692-.232-7.678-2.165-9.084a2.267,2.267,0,0,0-2.842-.043c-2.916,2-3.959,1.223-5.221-.2a6.306,6.306,0,0,0-2.107-1.712,1.623,1.623,0,0,0-1.455-.085c-1.057.511-1.685,2.309-1.837,2.959a.8.8,0,0,1-1.559-.362c.073-.315.766-3.1,2.7-4.036a3.177,3.177,0,0,1,2.838.076,7.857,7.857,0,0,1,2.62,2.1c.906,1.019,1.15,1.293,3.119-.061a3.872,3.872,0,0,1,4.69.068c2.366,1.72,4.092,6.352,2.758,10.833A.8.8,0,0,1,50.844,340.419Z"
                            transform="translate(-4.316 -4.506)"
                            fill="#6d1e9e"
                          />
                          <path
                            id="Path_6326"
                            data-name="Path 6326"
                            d="M69.353,336.277c-1.493,0-4.565-.343-5.6-3.044a1.114,1.114,0,0,0-.72-.744c-1.165-.383-3.266.716-3.91,1.13a.8.8,0,0,1-.867-1.344c.319-.206,3.174-1.99,5.273-1.308a2.726,2.726,0,0,1,1.718,1.693c.923,2.4,4.717,1.993,4.756,1.988a.8.8,0,0,1,.182,1.59A8.011,8.011,0,0,1,69.353,336.277Z"
                            transform="translate(-13.056 -6)"
                            fill="#6d1e9e"
                          />
                          <path
                            id="Path_6327"
                            data-name="Path 6327"
                            d="M70.789,326.076a3.065,3.065,0,1,1,3.065-3.065A3.069,3.069,0,0,1,70.789,326.076Zm0-4.53a1.465,1.465,0,1,0,1.465,1.465A1.467,1.467,0,0,0,70.789,321.546Z"
                            transform="translate(-16.493 -2.204)"
                            fill="#6d1e9e"
                          />
                          <path
                            id="Path_6328"
                            data-name="Path 6328"
                            d="M58.157,359.528a.8.8,0,0,1-.645-.326l-1.076-1.462L55.362,359.2a.8.8,0,0,1-1.289-.948l1.72-2.338a.829.829,0,0,1,1.289,0l1.72,2.338a.8.8,0,0,1-.644,1.274Z"
                            transform="translate(-11.669 -14.663)"
                            fill="#6d1e9e"
                          />
                          <path
                            id="Path_6329"
                            data-name="Path 6329"
                            d="M56.437,376.789a.8.8,0,0,1-.644-.325l-1.72-2.338a.8.8,0,0,1,1.289-.949l1.075,1.462,1.076-1.462a.8.8,0,0,1,1.289.949l-1.72,2.338A.8.8,0,0,1,56.437,376.789Z"
                            transform="translate(-11.669 -20.686)"
                            fill="#6d1e9e"
                          />
                          <path
                            id="Path_6330"
                            data-name="Path 6330"
                            d="M64.2,368.408a.8.8,0,0,1-.475-1.444l1.462-1.075-1.462-1.076a.8.8,0,1,1,.948-1.289l2.338,1.72a.8.8,0,0,1,0,1.288l-2.338,1.72A.8.8,0,0,1,64.2,368.408Z"
                            transform="translate(-14.982 -17.374)"
                            fill="#6d1e9e"
                          />
                          <path
                            id="Path_6331"
                            data-name="Path 6331"
                            d="M49.265,368.408a.8.8,0,0,1-.474-.156l-2.338-1.72a.8.8,0,0,1,0-1.288l2.338-1.72a.8.8,0,0,1,.949,1.289l-1.462,1.076,1.462,1.075a.8.8,0,0,1-.475,1.444Z"
                            transform="translate(-8.948 -17.373)"
                            fill="#6d1e9e"
                          />
                        </g>
                      </svg>