<?xml version="1.0" encoding="utf-8"?>
<svg version="1.1" id="Layer_1" xmlns="http://www.w3.org/2000/svg" xmlns:xlink="http://www.w3.org/1999/xlink" x="0px" y="0px"
	 viewBox="0 0 38 39" style="enable-background:new 0 0 38 39;" xml:space="preserve">
<style type="text/css">
	.st0{fill:#FFFFFF;}
</style>
<g id="Group_25" transform="translate(-0.385)">
	<ellipse id="Ellipse_17" class="st0" cx="19.4" cy="19.5" rx="19" ry="19.5"/>
</g>
<g>
	<path d="M24.4,12.5c-1.6-1.6-3.8-2.6-6.2-2.6c-4.8,0-8.7,3.9-8.7,8.7c0,1.5,0.4,3,1.2,4.4l-1.2,4.5l4.6-1.2
		c1.3,0.7,2.7,1.1,4.2,1.1l0,0c4.8,0,8.7-3.9,8.7-8.7C27,16.3,26,14.1,24.4,12.5L24.4,12.5z M18.2,25.9c-1.3,0-2.6-0.3-3.7-1
		l-0.3-0.2l-2.7,0.7l0.7-2.7L12,22.4c-0.6-1.1-1-2.4-1-3.8c0-4,3.2-7.2,7.2-7.2c1.9,0,3.8,0.8,5.1,2.1c1.4,1.4,2.1,3.2,2.1,5.1
		C25.5,22.6,22.2,25.9,18.2,25.9z M22.2,20.5c-0.2-0.1-1.3-0.6-1.5-0.7s-0.3-0.1-0.5,0.1c-0.1,0.2-0.6,0.7-0.7,0.9
		c-0.1,0.1-0.3,0.2-0.5,0.1s-0.9-0.3-1.7-1.1c-0.6-0.6-1.1-1.3-1.2-1.5s0-0.3,0.1-0.4s0.2-0.3,0.3-0.4c0.1-0.1,0.1-0.2,0.2-0.4
		c0.1-0.1,0-0.3,0-0.4c-0.1-0.1-0.5-1.2-0.7-1.6c-0.2-0.4-0.4-0.4-0.5-0.4s-0.3,0-0.4,0c-0.2,0-0.4,0.1-0.6,0.3
		c-0.2,0.2-0.8,0.7-0.8,1.8s0.8,2.1,0.9,2.3c0.1,0.1,1.5,2.3,3.7,3.3c0.5,0.2,0.9,0.4,1.2,0.5c0.5,0.2,1,0.1,1.4,0.1
		c0.4-0.1,1.3-0.5,1.5-1s0.2-0.9,0.1-1C22.6,20.6,22.4,20.6,22.2,20.5z"/>
</g>
</svg>
